<?xml version="1.0" encoding="ISO-8859-1" standalone="no"?>
<!DOCTYPE svg PUBLIC "-//W3C//DTD SVG 20010904//EN"
  "http://www.w3.org/TR/2001/REC-SVG-20010904/DTD/svg10.dtd">
<!-- Created by DISLIN (http://www.dislin.de)
Version: 11.5
Date   : 16.05.2026 01:29:04
-->
<svg width="853" height="603"
  xmlns="http://www.w3.org/2000/svg"
  xmlns:xlink="http://www.w3.org/1999/xlink">

<g fill="none" stroke="#000000" stroke-width="1.000">
<polyline points="
 0.00, 0.00 0.00, 526.29 852.00, 526.29 852.00, 0.00 0.00, 0.00"/>
<line x1="120.53" y1="398.88" x2="745.82" y2="398.88"/>
<line x1="120.53" y1="398.88" x2="120.53" y2="405.77"/>
<line x1="148.93" y1="403.47" x2="148.93" y2="398.88"/>
<line x1="177.34" y1="398.88" x2="177.34" y2="405.77"/>
<line x1="205.75" y1="403.47" x2="205.75" y2="398.88"/>
<line x1="234.16" y1="398.88" x2="234.16" y2="405.77"/>
<line x1="262.57" y1="403.47" x2="262.57" y2="398.88"/>
<line x1="290.98" y1="398.88" x2="290.98" y2="405.77"/>
<line x1="319.39" y1="403.47" x2="319.39" y2="398.88"/>
<line x1="347.80" y1="398.88" x2="347.80" y2="405.77"/>
<line x1="376.21" y1="403.47" x2="376.21" y2="398.88"/>
<line x1="404.62" y1="398.88" x2="404.62" y2="405.77"/>
<line x1="433.32" y1="403.47" x2="433.32" y2="398.88"/>
<line x1="461.73" y1="398.88" x2="461.73" y2="405.77"/>
<line x1="490.14" y1="403.47" x2="490.14" y2="398.88"/>
<line x1="518.55" y1="398.88" x2="518.55" y2="405.77"/>
<line x1="546.96" y1="403.47" x2="546.96" y2="398.88"/>
<line x1="575.37" y1="398.88" x2="575.37" y2="405.77"/>
<line x1="603.78" y1="403.47" x2="603.78" y2="398.88"/>
<line x1="632.18" y1="398.88" x2="632.18" y2="405.77"/>
<line x1="660.59" y1="403.47" x2="660.59" y2="398.88"/>
<line x1="689.00" y1="398.88" x2="689.00" y2="405.77"/>
<line x1="717.41" y1="403.47" x2="717.41" y2="398.88"/>
<line x1="745.82" y1="398.88" x2="745.82" y2="405.77"/>
<polyline points="
 118.72, 420.98 119.55, 420.98 120.80, 420.58 121.63, 419.39 122.05, 417.41
 122.05, 416.22 121.63, 414.24 120.80, 413.05 119.55, 412.66 118.72, 412.66
 117.47, 413.05 116.64, 414.24 116.22, 416.22 116.22, 417.41 116.64, 419.39
 117.47, 420.58 118.72, 420.98 119.55, 420.98 120.38, 420.58 120.80, 420.19
 121.21, 419.39 121.63, 417.41 121.63, 416.22 121.21, 414.24 120.80, 413.45
 120.38, 413.05 119.55, 412.66 118.72, 412.66 117.89, 413.05 117.47, 413.45
 117.05, 414.24 116.64, 416.22 116.64, 417.41 117.05, 419.39 117.47, 420.19
 117.89, 420.58 118.72, 420.98"/>
<polyline points="
 124.61, 420.98 125.03, 420.58 124.61, 420.19 124.20, 420.58 124.61, 420.98"/>
<polyline points="
 169.02, 420.98 169.02, 419.79 169.44, 418.60 170.27, 417.81 171.10, 417.41
 172.77, 416.62 174.02, 415.83 174.43, 415.03 174.43, 414.24 174.02, 413.45
 173.60, 413.05 172.77, 412.66 171.10, 412.66 169.85, 413.05 169.44, 413.45
 169.02, 414.24 169.02, 414.64 169.44, 415.03 169.85, 414.64 169.44, 414.24"/>
<polyline points="
 172.77, 412.66 174.02, 413.05 174.43, 413.45 174.85, 414.24 174.85, 415.03
 174.43, 415.83 173.18, 416.62 171.10, 417.41"/>
<polyline points="
 169.02, 420.19 169.44, 419.79 170.27, 419.79 172.35, 420.98 174.02, 420.98
 174.43, 420.58 174.85, 419.79 174.85, 419.00 174.85, 419.79 174.43, 420.19
 173.60, 420.58 172.35, 420.58 170.27, 419.79"/>
<polyline points="
 179.08, 420.98 177.83, 420.58 177.42, 420.19 177.00, 419.39 177.00, 419.00
 177.42, 418.60 177.83, 419.00 177.42, 419.39"/>
<polyline points="
 179.08, 420.98 180.33, 420.98 181.58, 420.58 182.41, 419.79 182.83, 418.60
 182.83, 417.81 182.41, 416.62 181.58, 415.83 180.33, 415.43 179.08, 415.43
 177.83, 415.83 177.00, 416.62 177.83, 412.66 181.99, 412.66 179.91, 413.05
 177.83, 413.05"/>
<polyline points="
 180.33, 415.43 181.16, 415.83 181.99, 416.62 182.41, 417.81 182.41, 418.60
 181.99, 419.79 181.16, 420.58 180.33, 420.98"/>
<polyline points="
 185.39, 420.98 185.81, 420.58 185.39, 420.19 184.98, 420.58 185.39, 420.98"/>
<polyline points="
 227.92, 420.98 226.67, 420.58 226.26, 420.19 225.84, 419.39 225.84, 419.00
 226.26, 418.60 226.67, 419.00 226.26, 419.39"/>
<polyline points="
 227.92, 420.98 229.17, 420.98 230.42, 420.58 231.25, 419.79 231.67, 418.60
 231.67, 417.81 231.25, 416.62 230.42, 415.83 229.17, 415.43 227.92, 415.43
 226.67, 415.83 225.84, 416.62 226.67, 412.66 230.83, 412.66 228.75, 413.05
 226.67, 413.05"/>
<polyline points="
 229.17, 415.43 230.00, 415.83 230.83, 416.62 231.25, 417.81 231.25, 418.60
 230.83, 419.79 230.00, 420.58 229.17, 420.98"/>
<polyline points="
 236.32, 420.98 237.15, 420.98 238.40, 420.58 239.23, 419.39 239.64, 417.41
 239.64, 416.22 239.23, 414.24 238.40, 413.05 237.15, 412.66 236.32, 412.66
 235.07, 413.05 234.24, 414.24 233.82, 416.22 233.82, 417.41 234.24, 419.39
 235.07, 420.58 236.32, 420.98 237.15, 420.98 237.98, 420.58 238.40, 420.19
 238.81, 419.39 239.23, 417.41 239.23, 416.22 238.81, 414.24 238.40, 413.45
 237.98, 413.05 237.15, 412.66 236.32, 412.66 235.48, 413.05 235.07, 413.45
 234.65, 414.24 234.24, 416.22 234.24, 417.41 234.65, 419.39 235.07, 420.19
 235.48, 420.58 236.32, 420.98"/>
<polyline points="
 242.21, 420.98 242.63, 420.58 242.21, 420.19 241.80, 420.58 242.21, 420.98"/>
<polyline points="
 285.16, 420.98 285.16, 419.00 285.57, 417.81 285.99, 417.02 288.07, 415.03
 288.49, 413.84 288.49, 412.66 288.07, 413.45 287.65, 413.84 286.82, 413.84
 284.74, 412.66 283.91, 412.66 283.08, 413.45 282.66, 414.24"/>
<line x1="282.66" y1="415.03" x2="282.66" y2="412.66"/>
<polyline points="
 283.08, 413.45 283.91, 413.05 284.74, 413.05 286.82, 413.84"/>
<polyline points="
 288.07, 415.03 286.41, 417.02 285.99, 417.81 285.57, 419.00 285.57, 420.98"/>
<polyline points="
 292.72, 420.98 291.47, 420.58 291.05, 420.19 290.64, 419.39 290.64, 419.00
 291.05, 418.60 291.47, 419.00 291.05, 419.39"/>
<polyline points="
 292.72, 420.98 293.97, 420.98 295.22, 420.58 296.05, 419.79 296.46, 418.60
 296.46, 417.81 296.05, 416.62 295.22, 415.83 293.97, 415.43 292.72, 415.43
 291.47, 415.83 290.64, 416.62 291.47, 412.66 295.63, 412.66 293.55, 413.05
 291.47, 413.05"/>
<polyline points="
 293.97, 415.43 294.80, 415.83 295.63, 416.62 296.05, 417.81 296.05, 418.60
 295.63, 419.79 294.80, 420.58 293.97, 420.98"/>
<polyline points="
 299.03, 420.98 299.45, 420.58 299.03, 420.19 298.62, 420.58 299.03, 420.98"/>
<line x1="338.27" y1="420.98" x2="338.27" y2="413.05"/>
<polyline points="
 336.61, 414.24 337.44, 413.84 338.69, 412.66 338.69, 420.98"/>
<line x1="336.61" y1="420.98" x2="340.36" y2="420.98"/>
<polyline points="
 345.00, 420.98 345.84, 420.98 347.08, 420.58 347.92, 419.39 348.33, 417.41
 348.33, 416.22 347.92, 414.24 347.08, 413.05 345.84, 412.66 345.00, 412.66
 343.76, 413.05 342.92, 414.24 342.51, 416.22 342.51, 417.41 342.92, 419.39
 343.76, 420.58 345.00, 420.98 345.84, 420.98 346.67, 420.58 347.08, 420.19
 347.50, 419.39 347.92, 417.41 347.92, 416.22 347.50, 414.24 347.08, 413.45
 346.67, 413.05 345.84, 412.66 345.00, 412.66 344.17, 413.05 343.76, 413.45
 343.34, 414.24 342.92, 416.22 342.92, 417.41 343.34, 419.39 343.76, 420.19
 344.17, 420.58 345.00, 420.98"/>
<polyline points="
 352.98, 420.98 353.81, 420.98 355.06, 420.58 355.89, 419.39 356.31, 417.41
 356.31, 416.22 355.89, 414.24 355.06, 413.05 353.81, 412.66 352.98, 412.66
 351.73, 413.05 350.90, 414.24 350.49, 416.22 350.49, 417.41 350.90, 419.39
 351.73, 420.58 352.98, 420.98 353.81, 420.98 354.65, 420.58 355.06, 420.19
 355.48, 419.39 355.89, 417.41 355.89, 416.22 355.48, 414.24 355.06, 413.45
 354.65, 413.05 353.81, 412.66 352.98, 412.66 352.15, 413.05 351.73, 413.45
 351.32, 414.24 350.90, 416.22 350.90, 417.41 351.32, 419.39 351.73, 420.19
 352.15, 420.58 352.98, 420.98"/>
<polyline points="
 358.88, 420.98 359.29, 420.58 358.88, 420.19 358.46, 420.58 358.88, 420.98"/>
<line x1="395.09" y1="420.98" x2="395.09" y2="413.05"/>
<polyline points="
 393.43, 414.24 394.26, 413.84 395.51, 412.66 395.51, 420.98"/>
<line x1="393.43" y1="420.98" x2="397.17" y2="420.98"/>
<polyline points="
 399.33, 420.98 399.33, 419.79 399.74, 418.60 400.57, 417.81 401.41, 417.41
 403.07, 416.62 404.32, 415.83 404.74, 415.03 404.74, 414.24 404.32, 413.45
 403.90, 413.05 403.07, 412.66 401.41, 412.66 400.16, 413.05 399.74, 413.45
 399.33, 414.24 399.33, 414.64 399.74, 415.03 400.16, 414.64 399.74, 414.24"/>
<polyline points="
 403.07, 412.66 404.32, 413.05 404.74, 413.45 405.15, 414.24 405.15, 415.03
 404.74, 415.83 403.49, 416.62 401.41, 417.41"/>
<polyline points="
 399.33, 420.19 399.74, 419.79 400.57, 419.79 402.66, 420.98 404.32, 420.98
 404.74, 420.58 405.15, 419.79 405.15, 419.00 405.15, 419.79 404.74, 420.19
 403.90, 420.58 402.66, 420.58 400.57, 419.79"/>
<polyline points="
 409.38, 420.98 408.14, 420.58 407.72, 420.19 407.30, 419.39 407.30, 419.00
 407.72, 418.60 408.14, 419.00 407.72, 419.39"/>
<polyline points="
 409.38, 420.98 410.63, 420.98 411.88, 420.58 412.71, 419.79 413.13, 418.60
 413.13, 417.81 412.71, 416.62 411.88, 415.83 410.63, 415.43 409.38, 415.43
 408.14, 415.83 407.30, 416.62 408.14, 412.66 412.30, 412.66 410.22, 413.05
 408.14, 413.05"/>
<polyline points="
 410.63, 415.43 411.47, 415.83 412.30, 416.62 412.71, 417.81 412.71, 418.60
 412.30, 419.79 411.47, 420.58 410.63, 420.98"/>
<polyline points="
 415.70, 420.98 416.11, 420.58 415.70, 420.19 415.28, 420.58 415.70, 420.98"/>
<line x1="451.91" y1="420.98" x2="451.91" y2="413.05"/>
<polyline points="
 450.25, 414.24 451.08, 413.84 452.33, 412.66 452.33, 420.98"/>
<line x1="450.25" y1="420.98" x2="453.99" y2="420.98"/>
<polyline points="
 458.23, 420.98 456.98, 420.58 456.56, 420.19 456.15, 419.39 456.15, 419.00
 456.56, 418.60 456.98, 419.00 456.56, 419.39"/>
<polyline points="
 458.23, 420.98 459.47, 420.98 460.72, 420.58 461.56, 419.79 461.97, 418.60
 461.97, 417.81 461.56, 416.62 460.72, 415.83 459.47, 415.43 458.23, 415.43
 456.98, 415.83 456.15, 416.62 456.98, 412.66 461.14, 412.66 459.06, 413.05
 456.98, 413.05"/>
<polyline points="
 459.47, 415.43 460.31, 415.83 461.14, 416.62 461.56, 417.81 461.56, 418.60
 461.14, 419.79 460.31, 420.58 459.47, 420.98"/>
<polyline points="
 466.62, 420.98 467.45, 420.98 468.70, 420.58 469.53, 419.39 469.95, 417.41
 469.95, 416.22 469.53, 414.24 468.70, 413.05 467.45, 412.66 466.62, 412.66
 465.37, 413.05 464.54, 414.24 464.12, 416.22 464.12, 417.41 464.54, 419.39
 465.37, 420.58 466.62, 420.98 467.45, 420.98 468.28, 420.58 468.70, 420.19
 469.12, 419.39 469.53, 417.41 469.53, 416.22 469.12, 414.24 468.70, 413.45
 468.28, 413.05 467.45, 412.66 466.62, 412.66 465.79, 413.05 465.37, 413.45
 464.96, 414.24 464.54, 416.22 464.54, 417.41 464.96, 419.39 465.37, 420.19
 465.79, 420.58 466.62, 420.98"/>
<polyline points="
 472.52, 420.98 472.93, 420.58 472.52, 420.19 472.10, 420.58 472.52, 420.98"/>
<line x1="508.73" y1="420.98" x2="508.73" y2="413.05"/>
<polyline points="
 507.07, 414.24 507.90, 413.84 509.15, 412.66 509.15, 420.98"/>
<line x1="507.07" y1="420.98" x2="510.81" y2="420.98"/>
<polyline points="
 515.46, 420.98 515.46, 419.00 515.88, 417.81 516.29, 417.02 518.37, 415.03
 518.79, 413.84 518.79, 412.66 518.37, 413.45 517.96, 413.84 517.13, 413.84
 515.05, 412.66 514.21, 412.66 513.38, 413.45 512.96, 414.24"/>
<line x1="512.96" y1="415.03" x2="512.96" y2="412.66"/>
<polyline points="
 513.38, 413.45 514.21, 413.05 515.05, 413.05 517.13, 413.84"/>
<polyline points="
 518.37, 415.03 516.71, 417.02 516.29, 417.81 515.88, 419.00 515.88, 420.98"/>
<polyline points="
 523.02, 420.98 521.77, 420.58 521.36, 420.19 520.94, 419.39 520.94, 419.00
 521.36, 418.60 521.77, 419.00 521.36, 419.39"/>
<polyline points="
 523.02, 420.98 524.27, 420.98 525.52, 420.58 526.35, 419.79 526.77, 418.60
 526.77, 417.81 526.35, 416.62 525.52, 415.83 524.27, 415.43 523.02, 415.43
 521.77, 415.83 520.94, 416.62 521.77, 412.66 525.94, 412.66 523.86, 413.05
 521.77, 413.05"/>
<polyline points="
 524.27, 415.43 525.10, 415.83 525.94, 416.62 526.35, 417.81 526.35, 418.60
 525.94, 419.79 525.10, 420.58 524.27, 420.98"/>
<polyline points="
 529.34, 420.98 529.75, 420.58 529.34, 420.19 528.92, 420.58 529.34, 420.98"/>
<polyline points="
 563.03, 420.98 563.03, 419.79 563.44, 418.60 564.27, 417.81 565.11, 417.41
 566.77, 416.62 568.02, 415.83 568.44, 415.03 568.44, 414.24 568.02, 413.45
 567.60, 413.05 566.77, 412.66 565.11, 412.66 563.86, 413.05 563.44, 413.45
 563.03, 414.24 563.03, 414.64 563.44, 415.03 563.86, 414.64 563.44, 414.24"/>
<polyline points="
 566.77, 412.66 568.02, 413.05 568.44, 413.45 568.85, 414.24 568.85, 415.03
 568.44, 415.83 567.19, 416.62 565.11, 417.41"/>
<polyline points="
 563.03, 420.19 563.44, 419.79 564.27, 419.79 566.35, 420.98 568.02, 420.98
 568.44, 420.58 568.85, 419.79 568.85, 419.00 568.85, 419.79 568.44, 420.19
 567.60, 420.58 566.35, 420.58 564.27, 419.79"/>
<polyline points="
 573.50, 420.98 574.33, 420.98 575.58, 420.58 576.41, 419.39 576.83, 417.41
 576.83, 416.22 576.41, 414.24 575.58, 413.05 574.33, 412.66 573.50, 412.66
 572.25, 413.05 571.42, 414.24 571.00, 416.22 571.00, 417.41 571.42, 419.39
 572.25, 420.58 573.50, 420.98 574.33, 420.98 575.16, 420.58 575.58, 420.19
 576.00, 419.39 576.41, 417.41 576.41, 416.22 576.00, 414.24 575.58, 413.45
 575.16, 413.05 574.33, 412.66 573.50, 412.66 572.67, 413.05 572.25, 413.45
 571.84, 414.24 571.42, 416.22 571.42, 417.41 571.84, 419.39 572.25, 420.19
 572.67, 420.58 573.50, 420.98"/>
<polyline points="
 581.48, 420.98 582.31, 420.98 583.56, 420.58 584.39, 419.39 584.81, 417.41
 584.81, 416.22 584.39, 414.24 583.56, 413.05 582.31, 412.66 581.48, 412.66
 580.23, 413.05 579.40, 414.24 578.98, 416.22 578.98, 417.41 579.40, 419.39
 580.23, 420.58 581.48, 420.98 582.31, 420.98 583.14, 420.58 583.56, 420.19
 583.97, 419.39 584.39, 417.41 584.39, 416.22 583.97, 414.24 583.56, 413.45
 583.14, 413.05 582.31, 412.66 581.48, 412.66 580.65, 413.05 580.23, 413.45
 579.81, 414.24 579.40, 416.22 579.40, 417.41 579.81, 419.39 580.23, 420.19
 580.65, 420.58 581.48, 420.98"/>
<polyline points="
 587.38, 420.98 587.79, 420.58 587.38, 420.19 586.96, 420.58 587.38, 420.98"/>
<polyline points="
 619.85, 420.98 619.85, 419.79 620.26, 418.60 621.09, 417.81 621.93, 417.41
 623.59, 416.62 624.84, 415.83 625.25, 415.03 625.25, 414.24 624.84, 413.45
 624.42, 413.05 623.59, 412.66 621.93, 412.66 620.68, 413.05 620.26, 413.45
 619.85, 414.24 619.85, 414.64 620.26, 415.03 620.68, 414.64 620.26, 414.24"/>
<polyline points="
 623.59, 412.66 624.84, 413.05 625.25, 413.45 625.67, 414.24 625.67, 415.03
 625.25, 415.83 624.01, 416.62 621.93, 417.41"/>
<polyline points="
 619.85, 420.19 620.26, 419.79 621.09, 419.79 623.17, 420.98 624.84, 420.98
 625.25, 420.58 625.67, 419.79 625.67, 419.00 625.67, 419.79 625.25, 420.19
 624.42, 420.58 623.17, 420.58 621.09, 419.79"/>
<polyline points="
 627.82, 420.98 627.82, 419.79 628.24, 418.60 629.07, 417.81 629.90, 417.41
 631.57, 416.62 632.82, 415.83 633.23, 415.03 633.23, 414.24 632.82, 413.45
 632.40, 413.05 631.57, 412.66 629.90, 412.66 628.65, 413.05 628.24, 413.45
 627.82, 414.24 627.82, 414.64 628.24, 415.03 628.65, 414.64 628.24, 414.24"/>
<polyline points="
 631.57, 412.66 632.82, 413.05 633.23, 413.45 633.65, 414.24 633.65, 415.03
 633.23, 415.83 631.98, 416.62 629.90, 417.41"/>
<polyline points="
 627.82, 420.19 628.24, 419.79 629.07, 419.79 631.15, 420.98 632.82, 420.98
 633.23, 420.58 633.65, 419.79 633.65, 419.00 633.65, 419.79 633.23, 420.19
 632.40, 420.58 631.15, 420.58 629.07, 419.79"/>
<polyline points="
 637.88, 420.98 636.63, 420.58 636.22, 420.19 635.80, 419.39 635.80, 419.00
 636.22, 418.60 636.63, 419.00 636.22, 419.39"/>
<polyline points="
 637.88, 420.98 639.13, 420.98 640.38, 420.58 641.21, 419.79 641.63, 418.60
 641.63, 417.81 641.21, 416.62 640.38, 415.83 639.13, 415.43 637.88, 415.43
 636.63, 415.83 635.80, 416.62 636.63, 412.66 640.79, 412.66 638.71, 413.05
 636.63, 413.05"/>
<polyline points="
 639.13, 415.43 639.96, 415.83 640.79, 416.62 641.21, 417.81 641.21, 418.60
 640.79, 419.79 639.96, 420.58 639.13, 420.98"/>
<polyline points="
 644.19, 420.98 644.61, 420.58 644.19, 420.19 643.78, 420.58 644.19, 420.98"/>
<polyline points="
 676.66, 420.98 676.66, 419.79 677.08, 418.60 677.91, 417.81 678.74, 417.41
 680.41, 416.62 681.66, 415.83 682.07, 415.03 682.07, 414.24 681.66, 413.45
 681.24, 413.05 680.41, 412.66 678.74, 412.66 677.50, 413.05 677.08, 413.45
 676.66, 414.24 676.66, 414.64 677.08, 415.03 677.50, 414.64 677.08, 414.24"/>
<polyline points="
 680.41, 412.66 681.66, 413.05 682.07, 413.45 682.49, 414.24 682.49, 415.03
 682.07, 415.83 680.83, 416.62 678.74, 417.41"/>
<polyline points="
 676.66, 420.19 677.08, 419.79 677.91, 419.79 679.99, 420.98 681.66, 420.98
 682.07, 420.58 682.49, 419.79 682.49, 419.00 682.49, 419.79 682.07, 420.19
 681.24, 420.58 679.99, 420.58 677.91, 419.79"/>
<polyline points="
 686.72, 420.98 685.47, 420.58 685.06, 420.19 684.64, 419.39 684.64, 419.00
 685.06, 418.60 685.47, 419.00 685.06, 419.39"/>
<polyline points="
 686.72, 420.98 687.97, 420.98 689.22, 420.58 690.05, 419.79 690.47, 418.60
 690.47, 417.81 690.05, 416.62 689.22, 415.83 687.97, 415.43 686.72, 415.43
 685.47, 415.83 684.64, 416.62 685.47, 412.66 689.64, 412.66 687.55, 413.05
 685.47, 413.05"/>
<polyline points="
 687.97, 415.43 688.80, 415.83 689.64, 416.62 690.05, 417.81 690.05, 418.60
 689.64, 419.79 688.80, 420.58 687.97, 420.98"/>
<polyline points="
 695.12, 420.98 695.95, 420.98 697.20, 420.58 698.03, 419.39 698.44, 417.41
 698.44, 416.22 698.03, 414.24 697.20, 413.05 695.95, 412.66 695.12, 412.66
 693.87, 413.05 693.04, 414.24 692.62, 416.22 692.62, 417.41 693.04, 419.39
 693.87, 420.58 695.12, 420.98 695.95, 420.98 696.78, 420.58 697.20, 420.19
 697.61, 419.39 698.03, 417.41 698.03, 416.22 697.61, 414.24 697.20, 413.45
 696.78, 413.05 695.95, 412.66 695.12, 412.66 694.28, 413.05 693.87, 413.45
 693.45, 414.24 693.04, 416.22 693.04, 417.41 693.45, 419.39 693.87, 420.19
 694.28, 420.58 695.12, 420.98"/>
<polyline points="
 701.01, 420.98 701.43, 420.58 701.01, 420.19 700.60, 420.58 701.01, 420.98"/>
<polyline points="
 733.48, 420.98 733.48, 419.79 733.90, 418.60 734.73, 417.81 735.56, 417.41
 737.23, 416.62 738.48, 415.83 738.89, 415.03 738.89, 414.24 738.48, 413.45
 738.06, 413.05 737.23, 412.66 735.56, 412.66 734.32, 413.05 733.90, 413.45
 733.48, 414.24 733.48, 414.64 733.90, 415.03 734.32, 414.64 733.90, 414.24"/>
<polyline points="
 737.23, 412.66 738.48, 413.05 738.89, 413.45 739.31, 414.24 739.31, 415.03
 738.89, 415.83 737.64, 416.62 735.56, 417.41"/>
<polyline points="
 733.48, 420.19 733.90, 419.79 734.73, 419.79 736.81, 420.98 738.48, 420.98
 738.89, 420.58 739.31, 419.79 739.31, 419.00 739.31, 419.79 738.89, 420.19
 738.06, 420.58 736.81, 420.58 734.73, 419.79"/>
<polyline points="
 743.96, 420.98 743.96, 419.00 744.37, 417.81 744.79, 417.02 746.87, 415.03
 747.29, 413.84 747.29, 412.66 746.87, 413.45 746.45, 413.84 745.62, 413.84
 743.54, 412.66 742.71, 412.66 741.88, 413.45 741.46, 414.24"/>
<line x1="741.46" y1="415.03" x2="741.46" y2="412.66"/>
<polyline points="
 741.88, 413.45 742.71, 413.05 743.54, 413.05 745.62, 413.84"/>
<polyline points="
 746.87, 415.03 745.21, 417.02 744.79, 417.81 744.37, 419.00 744.37, 420.98"/>
<polyline points="
 751.52, 420.98 750.27, 420.58 749.85, 420.19 749.44, 419.39 749.44, 419.00
 749.85, 418.60 750.27, 419.00 749.85, 419.39"/>
<polyline points="
 751.52, 420.98 752.77, 420.98 754.02, 420.58 754.85, 419.79 755.26, 418.60
 755.26, 417.81 754.85, 416.62 754.02, 415.83 752.77, 415.43 751.52, 415.43
 750.27, 415.83 749.44, 416.62 750.27, 412.66 754.43, 412.66 752.35, 413.05
 750.27, 413.05"/>
<polyline points="
 752.77, 415.43 753.60, 415.83 754.43, 416.62 754.85, 417.81 754.85, 418.60
 754.43, 419.79 753.60, 420.58 752.77, 420.98"/>
<polyline points="
 757.83, 420.98 758.25, 420.58 757.83, 420.19 757.42, 420.58 757.83, 420.98"/>
<polyline points="
 277.50, 439.92 279.00, 439.44 280.01, 438.48 280.51, 437.05 280.51, 436.09
 280.01, 434.66 279.00, 433.70 277.50, 433.22 276.49, 433.22 274.98, 433.70
 273.98, 434.66 273.48, 436.09 273.48, 437.05 273.98, 438.48 274.98, 439.44
 276.49, 439.92 277.50, 439.92 278.50, 439.44 279.50, 438.48 280.01, 437.05
 280.01, 436.09 279.50, 434.66 278.50, 433.70 277.50, 433.22 276.49, 433.22
 275.49, 433.70 274.48, 434.66 273.98, 436.09 273.98, 437.05 274.48, 438.48
 275.49, 439.44 276.49, 439.92"/>
<line x1="283.09" y1="439.92" x2="286.61" y2="439.92"/>
<polyline points="
 284.60, 439.92 284.60, 431.31 285.10, 430.35 286.10, 429.87 287.11, 429.87
 287.61, 430.35 287.61, 430.83 287.11, 431.31 286.61, 430.83 287.11, 430.35"/>
<line x1="283.09" y1="433.22" x2="287.11" y2="433.22"/>
<polyline points="
 286.10, 429.87 285.60, 430.35 285.10, 431.31 285.10, 439.92"/>
<line x1="290.19" y1="439.92" x2="293.71" y2="439.92"/>
<polyline points="
 291.70, 439.92 291.70, 431.31 292.20, 430.35 293.21, 429.87 294.21, 429.87
 294.71, 430.35 294.71, 430.83 294.21, 431.31 293.71, 430.83 294.21, 430.35"/>
<line x1="290.19" y1="433.22" x2="294.21" y2="433.22"/>
<polyline points="
 293.21, 429.87 292.70, 430.35 292.20, 431.31 292.20, 439.92"/>
<polyline points="
 297.80, 436.09 303.82, 436.09 303.82, 435.14 303.32, 434.18 302.82, 433.70
 301.82, 433.22 300.31, 433.22"/>
<polyline points="
 300.31, 433.22 298.80, 433.70 297.80, 434.66 297.30, 436.09 297.30, 437.05
 297.80, 438.48 298.80, 439.44 300.31, 439.92 301.31, 439.92"/>
<polyline points="
 301.31, 439.92 302.82, 439.44 303.82, 438.48"/>
<polyline points="
 303.32, 436.09 303.32, 434.66 302.82, 433.70"/>
<polyline points="
 300.31, 433.22 299.30, 433.70 298.30, 434.66 297.80, 436.09 297.80, 437.05
 298.30, 438.48 299.30, 439.44 300.31, 439.92"/>
<polyline points="
 306.41, 439.92 308.42, 439.92 308.42, 433.22 306.41, 433.22"/>
<polyline points="
 307.91, 433.22 307.91, 439.92 309.92, 439.92"/>
<polyline points="
 308.42, 436.09 308.92, 434.66 309.92, 433.70 310.93, 433.22 312.43, 433.22
 312.94, 433.70 312.94, 434.18 312.43, 434.66 311.93, 434.18 312.43, 433.70"/>
<polyline points="
 316.02, 436.09 322.05, 436.09 322.05, 435.14 321.54, 434.18 321.04, 433.70
 320.04, 433.22 318.53, 433.22"/>
<polyline points="
 318.53, 433.22 317.02, 433.70 316.02, 434.66 315.52, 436.09 315.52, 437.05
 316.02, 438.48 317.02, 439.44 318.53, 439.92 319.54, 439.92"/>
<polyline points="
 319.54, 439.92 321.04, 439.44 322.05, 438.48"/>
<polyline points="
 321.54, 436.09 321.54, 434.66 321.04, 433.70"/>
<polyline points="
 318.53, 433.22 317.53, 433.70 316.52, 434.66 316.02, 436.09 316.02, 437.05
 316.52, 438.48 317.53, 439.44 318.53, 439.92"/>
<polyline points="
 331.16, 439.92 331.16, 429.87 329.15, 429.87"/>
<polyline points="
 330.66, 429.87 330.66, 439.92 332.66, 439.92"/>
<polyline points="
 327.64, 433.22 326.14, 433.70 325.13, 434.66 324.63, 436.09 324.63, 437.05
 325.13, 438.48 326.14, 439.44 327.64, 439.92 328.65, 439.92 329.65, 439.44
 330.66, 438.48"/>
<polyline points="
 330.66, 434.66 329.65, 433.70 328.65, 433.22 327.64, 433.22 326.64, 433.70
 325.63, 434.66 325.13, 436.09 325.13, 437.05 325.63, 438.48 326.64, 439.44
 327.64, 439.92"/>
<polyline points="
 342.35, 443.27 344.36, 443.27 344.36, 433.22 342.35, 433.22"/>
<polyline points="
 343.86, 433.22 343.86, 443.27 345.86, 443.27"/>
<polyline points="
 344.36, 438.48 345.36, 439.44 346.37, 439.92"/>
<polyline points="
 346.37, 439.92 347.37, 439.92 348.38, 439.44 349.38, 438.48 349.88, 437.05
 349.88, 436.09 349.38, 434.66 348.38, 433.70 347.37, 433.22 346.37, 433.22
 345.36, 433.70 344.36, 434.66"/>
<polyline points="
 347.37, 439.92 348.88, 439.44 349.88, 438.48 350.38, 437.05 350.38, 436.09
 349.88, 434.66 348.88, 433.70 347.37, 433.22"/>
<polyline points="
 356.48, 439.92 354.98, 439.44 354.47, 438.48 354.47, 433.22"/>
<polyline points="
 352.97, 433.22 354.98, 433.22 354.98, 438.48 355.48, 439.44 356.48, 439.92
 357.49, 439.92 358.99, 439.44 360.00, 438.48"/>
<polyline points="
 360.50, 439.92 360.50, 433.22 358.49, 433.22"/>
<polyline points="
 360.00, 433.22 360.00, 439.92 362.01, 439.92"/>
<polyline points="
 365.09, 438.96 364.59, 439.92 364.59, 438.00 365.09, 438.96 365.59, 439.44
 366.60, 439.92 368.61, 439.92 369.61, 439.44 370.11, 438.96 370.11, 437.53
 369.61, 437.05 368.61, 436.57 366.10, 435.61 365.09, 435.14 364.59, 434.66
 364.59, 434.18 365.09, 433.70 366.10, 433.22 368.10, 433.22 369.11, 433.70
 369.61, 434.18 370.11, 435.14 370.11, 433.22 369.61, 434.18"/>
<polyline points="
 364.59, 434.66 364.59, 435.14 365.09, 435.61 366.10, 436.09 368.61, 437.05
 369.61, 437.53 370.11, 438.00"/>
<polyline points="
 372.70, 439.92 374.70, 439.92 374.70, 429.87 372.70, 429.87"/>
<polyline points="
 374.20, 429.87 374.20, 439.92 376.21, 439.92"/>
<polyline points="
 374.70, 434.66 375.71, 433.70 377.22, 433.22 378.22, 433.22 379.73, 433.70
 380.23, 434.66 380.23, 439.92"/>
<line x1="378.22" y1="439.92" x2="381.74" y2="439.92"/>
<polyline points="
 379.73, 439.92 379.73, 434.66 379.22, 433.70 378.22, 433.22"/>
<polyline points="
 391.42, 439.92 393.43, 439.92 393.43, 433.22 391.42, 433.22"/>
<polyline points="
 392.93, 433.22 392.93, 439.92 394.94, 439.92"/>
<polyline points="
 393.43, 436.09 393.93, 434.66 394.94, 433.70 395.94, 433.22 397.45, 433.22
 397.95, 433.70 397.95, 434.18 397.45, 434.66 396.94, 434.18 397.45, 433.70"/>
<polyline points="
 402.54, 439.92 401.54, 439.44 401.03, 438.48 401.03, 437.53 401.54, 436.57
 402.54, 436.09"/>
<polyline points="
 401.54, 434.18 401.54, 434.66 401.03, 434.66 401.03, 434.18 401.54, 433.70
 402.54, 433.22 404.55, 433.22 405.55, 433.70 406.06, 434.18 406.56, 435.14
 406.56, 438.48 407.06, 439.44 407.56, 439.92 408.06, 439.92 407.56, 439.92
 406.56, 439.44 406.06, 438.48 406.06, 434.18 406.06, 435.14 405.55, 435.61
 402.54, 436.09 401.03, 436.57 400.53, 437.53 400.53, 438.48 401.03, 439.44
 402.54, 439.92 404.05, 439.92 405.05, 439.44 406.06, 438.48"/>
<polyline points="
 413.66, 439.92 413.16, 439.44 412.66, 438.00 412.66, 429.87"/>
<line x1="410.65" y1="433.22" x2="414.66" y2="433.22"/>
<polyline points="
 412.15, 429.87 412.15, 438.00 412.66, 439.44 413.66, 439.92 414.66, 439.92
 415.67, 439.44 416.17, 438.48"/>
<polyline points="
 419.26, 436.09 425.28, 436.09 425.28, 435.14 424.78, 434.18 424.28, 433.70
 423.27, 433.22 421.77, 433.22"/>
<polyline points="
 421.77, 433.22 420.26, 433.70 419.26, 434.66 418.75, 436.09 418.75, 437.05
 419.26, 438.48 420.26, 439.44 421.77, 439.92 422.77, 439.92"/>
<polyline points="
 422.77, 439.92 424.28, 439.44 425.28, 438.48"/>
<polyline points="
 424.78, 436.09 424.78, 434.66 424.28, 433.70"/>
<polyline points="
 421.77, 433.22 420.76, 433.70 419.76, 434.66 419.26, 436.09 419.26, 437.05
 419.76, 438.48 420.76, 439.44 421.77, 439.92"/>
<polyline points="
 438.48, 441.83 434.97, 441.83 434.97, 427.96 438.48, 427.96"/>
<line x1="435.47" y1="441.83" x2="435.47" y2="427.96"/>
<line x1="441.07" y1="439.92" x2="444.08" y2="439.92"/>
<polyline points="
 442.57, 439.92 442.57, 429.87 446.09, 439.92 449.60, 429.87"/>
<polyline points="
 441.07, 429.87 443.07, 429.87 446.09, 438.48"/>
<polyline points="
 448.10, 439.92 450.11, 439.92 450.11, 429.87"/>
<polyline points="
 451.61, 429.87 449.60, 429.87 449.60, 439.92 451.61, 439.92"/>
<polyline points="
 463.31, 439.92 463.31, 429.87 461.30, 429.87"/>
<line x1="462.80" y1="429.87" x2="462.80" y2="439.92"/>
<polyline points="
 463.31, 438.48 464.31, 439.44 465.31, 439.92"/>
<polyline points="
 465.31, 439.92 466.32, 439.92 467.32, 439.44 468.33, 438.48 468.83, 437.05
 468.83, 436.09 468.33, 434.66 467.32, 433.70 466.32, 433.22 465.31, 433.22
 464.31, 433.70 463.31, 434.66"/>
<polyline points="
 466.32, 439.92 467.83, 439.44 468.83, 438.48 469.33, 437.05 469.33, 436.09
 468.83, 434.66 467.83, 433.70 466.32, 433.22"/>
<polyline points="
 471.91, 439.92 473.92, 439.92 473.92, 433.22 471.91, 433.22"/>
<polyline points="
 473.42, 430.83 473.92, 430.35 473.42, 429.87 472.92, 430.35 473.42, 430.83"/>
<polyline points="
 473.42, 433.22 473.42, 439.92 475.43, 439.92"/>
<polyline points="
 478.01, 439.92 480.02, 439.92 480.02, 433.22 478.01, 433.22"/>
<polyline points="
 479.52, 433.22 479.52, 439.92 481.53, 439.92"/>
<polyline points="
 480.02, 434.66 481.03, 433.70 482.53, 433.22 483.54, 433.22 485.04, 433.70
 485.55, 434.66 485.55, 439.92"/>
<line x1="483.54" y1="439.92" x2="487.05" y2="439.92"/>
<polyline points="
 485.04, 439.92 485.04, 434.66 484.54, 433.70 483.54, 433.22"/>
<line x1="489.63" y1="435.61" x2="498.67" y2="435.61"/>
<polyline points="
 504.77, 439.92 503.27, 439.44 502.76, 438.48 502.76, 433.22"/>
<polyline points="
 501.26, 433.22 503.27, 433.22 503.27, 438.48 503.77, 439.44 504.77, 439.92
 505.78, 439.92 507.28, 439.44 508.29, 438.48"/>
<polyline points="
 508.79, 439.92 508.79, 433.22 506.78, 433.22"/>
<polyline points="
 508.29, 433.22 508.29, 439.92 510.30, 439.92"/>
<polyline points="
 512.88, 443.27 514.89, 443.27 514.89, 433.22 512.88, 433.22"/>
<polyline points="
 514.39, 433.22 514.39, 443.27 516.39, 443.27"/>
<polyline points="
 514.89, 438.48 515.89, 439.44 516.90, 439.92"/>
<polyline points="
 516.90, 439.92 517.90, 439.92 518.91, 439.44 519.91, 438.48 520.41, 437.05
 520.41, 436.09 519.91, 434.66 518.91, 433.70 517.90, 433.22 516.90, 433.22
 515.89, 433.70 514.89, 434.66"/>
<polyline points="
 517.90, 439.92 519.41, 439.44 520.41, 438.48 520.91, 437.05 520.91, 436.09
 520.41, 434.66 519.41, 433.70 517.90, 433.22"/>
<polyline points="
 530.02, 439.92 530.02, 429.87 528.02, 429.87"/>
<polyline points="
 529.52, 429.87 529.52, 439.92 531.53, 439.92"/>
<polyline points="
 526.51, 433.22 525.00, 433.70 524.00, 434.66 523.50, 436.09 523.50, 437.05
 524.00, 438.48 525.00, 439.44 526.51, 439.92 527.51, 439.92 528.52, 439.44
 529.52, 438.48"/>
<polyline points="
 529.52, 434.66 528.52, 433.70 527.51, 433.22 526.51, 433.22 525.51, 433.70
 524.50, 434.66 524.00, 436.09 524.00, 437.05 524.50, 438.48 525.51, 439.44
 526.51, 439.92"/>
<polyline points="
 536.12, 439.92 535.12, 439.44 534.62, 438.48 534.62, 437.53 535.12, 436.57
 536.12, 436.09"/>
<polyline points="
 535.12, 434.18 535.12, 434.66 534.62, 434.66 534.62, 434.18 535.12, 433.70
 536.12, 433.22 538.13, 433.22 539.14, 433.70 539.64, 434.18 540.14, 435.14
 540.14, 438.48 540.64, 439.44 541.14, 439.92 541.65, 439.92 541.14, 439.92
 540.14, 439.44 539.64, 438.48 539.64, 434.18 539.64, 435.14 539.14, 435.61
 536.12, 436.09 534.62, 436.57 534.11, 437.53 534.11, 438.48 534.62, 439.44
 536.12, 439.92 537.63, 439.92 538.63, 439.44 539.64, 438.48"/>
<polyline points="
 547.24, 439.92 546.74, 439.44 546.24, 438.00 546.24, 429.87"/>
<line x1="544.23" y1="433.22" x2="548.25" y2="433.22"/>
<polyline points="
 545.74, 429.87 545.74, 438.00 546.24, 439.44 547.24, 439.92 548.25, 439.92
 549.25, 439.44 549.75, 438.48"/>
<polyline points="
 552.84, 436.09 558.86, 436.09 558.86, 435.14 558.36, 434.18 557.86, 433.70
 556.86, 433.22 555.35, 433.22"/>
<polyline points="
 555.35, 433.22 553.84, 433.70 552.84, 434.66 552.34, 436.09 552.34, 437.05
 552.84, 438.48 553.84, 439.44 555.35, 439.92 556.35, 439.92"/>
<polyline points="
 556.35, 439.92 557.86, 439.44 558.86, 438.48"/>
<polyline points="
 558.36, 436.09 558.36, 434.66 557.86, 433.70"/>
<polyline points="
 555.35, 433.22 554.35, 433.70 553.34, 434.66 552.84, 436.09 552.84, 437.05
 553.34, 438.48 554.35, 439.44 555.35, 439.92"/>
<polyline points="
 561.95, 438.96 561.45, 439.92 561.45, 438.00 561.95, 438.96 562.45, 439.44
 563.46, 439.92 565.47, 439.92 566.47, 439.44 566.97, 438.96 566.97, 437.53
 566.47, 437.05 565.47, 436.57 562.95, 435.61 561.95, 435.14 561.45, 434.66
 561.45, 434.18 561.95, 433.70 562.95, 433.22 564.96, 433.22 565.97, 433.70
 566.47, 434.18 566.97, 435.14 566.97, 433.22 566.47, 434.18"/>
<polyline points="
 561.45, 434.66 561.45, 435.14 561.95, 435.61 562.95, 436.09 565.47, 437.05
 566.47, 437.53 566.97, 438.00"/>
<line x1="569.55" y1="441.83" x2="578.59" y2="427.96"/>
<polyline points="
 581.68, 438.96 581.18, 439.92 581.18, 438.00 581.68, 438.96 582.18, 439.44
 583.19, 439.92 585.19, 439.92 586.20, 439.44 586.70, 438.96 586.70, 437.53
 586.20, 437.05 585.19, 436.57 582.68, 435.61 581.68, 435.14 581.18, 434.66
 581.18, 434.18 581.68, 433.70 582.68, 433.22 584.69, 433.22 585.70, 433.70
 586.20, 434.18 586.70, 435.14 586.70, 433.22 586.20, 434.18"/>
<polyline points="
 581.18, 434.66 581.18, 435.14 581.68, 435.61 582.68, 436.09 585.19, 437.05
 586.20, 437.53 586.70, 438.00"/>
<polyline points="
 589.28, 441.83 592.80, 441.83 592.80, 427.96 589.28, 427.96"/>
<line x1="592.30" y1="441.83" x2="592.30" y2="427.96"/>
<line x1="120.53" y1="398.88" x2="120.53" y2="143.77"/>
<line x1="113.64" y1="398.88" x2="120.53" y2="398.88"/>
<line x1="120.53" y1="367.03" x2="115.93" y2="367.03"/>
<line x1="113.64" y1="335.18" x2="120.53" y2="335.18"/>
<line x1="120.53" y1="303.32" x2="115.93" y2="303.32"/>
<line x1="113.64" y1="271.47" x2="120.53" y2="271.47"/>
<line x1="120.53" y1="239.33" x2="115.93" y2="239.33"/>
<line x1="113.64" y1="207.48" x2="120.53" y2="207.48"/>
<line x1="120.53" y1="175.62" x2="115.93" y2="175.62"/>
<line x1="113.64" y1="143.77" x2="120.53" y2="143.77"/>
<polyline points="
 100.35, 402.61 101.18, 402.61 102.43, 402.22 103.26, 401.03 103.68, 399.05
 103.68, 397.86 103.26, 395.88 102.43, 394.69 101.18, 394.29 100.35, 394.29
 99.10, 394.69 98.27, 395.88 97.86, 397.86 97.86, 399.05 98.27, 401.03
 99.10, 402.22 100.35, 402.61 101.18, 402.61 102.02, 402.22 102.43, 401.82
 102.85, 401.03 103.26, 399.05 103.26, 397.86 102.85, 395.88 102.43, 395.08
 102.02, 394.69 101.18, 394.29 100.35, 394.29 99.52, 394.69 99.10, 395.08
 98.69, 395.88 98.27, 397.86 98.27, 399.05 98.69, 401.03 99.10, 401.82
 99.52, 402.22 100.35, 402.61"/>
<polyline points="
 106.25, 402.61 106.67, 402.22 106.25, 401.82 105.83, 402.22 106.25, 402.61"/>
<polyline points="
 97.86, 338.91 97.86, 337.72 98.27, 336.53 99.10, 335.74 99.94, 335.34
 101.60, 334.55 102.85, 333.75 103.26, 332.96 103.26, 332.17 102.85, 331.38
 102.43, 330.98 101.60, 330.58 99.94, 330.58 98.69, 330.98 98.27, 331.38
 97.86, 332.17 97.86, 332.57 98.27, 332.96 98.69, 332.57 98.27, 332.17"/>
<polyline points="
 101.60, 330.58 102.85, 330.98 103.26, 331.38 103.68, 332.17 103.68, 332.96
 103.26, 333.75 102.02, 334.55 99.94, 335.34"/>
<polyline points="
 97.86, 338.11 98.27, 337.72 99.10, 337.72 101.18, 338.91 102.85, 338.91
 103.26, 338.51 103.68, 337.72 103.68, 336.92 103.68, 337.72 103.26, 338.11
 102.43, 338.51 101.18, 338.51 99.10, 337.72"/>
<polyline points="
 106.25, 338.91 106.67, 338.51 106.25, 338.11 105.83, 338.51 106.25, 338.91"/>
<line x1="99.91" y1="275.20" x2="102.82" y2="275.20"/>
<polyline points="
 101.57, 275.20 101.57, 266.88 96.99, 272.82 103.65, 272.82"/>
<line x1="101.16" y1="275.20" x2="101.16" y2="267.67"/>
<polyline points="
 106.22, 275.20 106.64, 274.80 106.22, 274.41 105.80, 274.80 106.22, 275.20"/>
<polyline points="
 102.85, 204.07 102.43, 204.47 102.85, 204.87 103.26, 204.47 103.26, 204.07
 102.85, 203.28 102.02, 202.88 100.77, 202.88 99.52, 203.28 98.69, 204.07
 98.27, 204.87 97.86, 206.45 97.86, 208.83 98.27, 210.02 99.10, 210.81
 100.35, 211.21 99.52, 210.81 98.69, 210.02 98.27, 208.83 98.27, 206.45
 98.69, 204.87 99.10, 204.07 99.94, 203.28 100.77, 202.88"/>
<polyline points="
 98.27, 208.43 98.69, 207.24 99.52, 206.45 100.77, 206.05 101.18, 206.05
 102.43, 206.45 103.26, 207.24 103.68, 208.43 103.68, 208.83 103.26, 210.02
 102.43, 210.81 101.18, 211.21 100.35, 211.21 101.18, 211.21 102.02, 210.81
 102.85, 210.02 103.26, 208.83 103.26, 208.43 102.85, 207.24 102.02, 206.45
 101.18, 206.05"/>
<polyline points="
 106.25, 211.21 106.67, 210.81 106.25, 210.41 105.83, 210.81 106.25, 211.21"/>
<polyline points="
 99.94, 142.74 98.69, 143.14 98.27, 143.54 97.86, 144.33 97.86, 145.92
 98.27, 146.71 98.69, 147.10 99.94, 147.50 101.60, 147.50 102.85, 147.10
 103.26, 146.71 103.68, 145.92 103.68, 144.33 103.26, 143.54 102.85, 143.14
 101.60, 142.74 99.94, 142.74 99.10, 143.14 98.69, 143.54 98.27, 144.33
 98.27, 145.92 98.69, 146.71 99.10, 147.10 99.94, 147.50 101.60, 147.50
 102.43, 147.10 102.85, 146.71 103.26, 145.92 103.26, 144.33 102.85, 143.54
 102.43, 143.14 101.60, 142.74 102.85, 142.35 103.26, 141.56 103.26, 140.37
 102.85, 139.57 101.60, 139.18 99.94, 139.18 98.69, 139.57 98.27, 140.37
 98.27, 141.56 98.69, 142.35 99.94, 142.74 101.60, 142.74 102.43, 142.35
 102.85, 141.56 102.85, 140.37 102.43, 139.57 101.60, 139.18 99.94, 139.18
 99.10, 139.57 98.69, 140.37 98.69, 141.56 99.10, 142.35 99.94, 142.74"/>
<polyline points="
 106.25, 147.50 106.67, 147.10 106.25, 146.71 105.83, 147.10 106.25, 147.50"/>
<polyline points="
 88.10, 375.92 88.10, 373.92 78.05, 373.92 78.05, 375.92"/>
<polyline points="
 78.05, 374.42 88.10, 374.42 88.10, 372.41"/>
<line x1="86.19" y1="373.92" x2="81.40" y2="368.89"/>
<line x1="81.40" y1="370.40" x2="81.40" y2="367.39"/>
<line x1="84.27" y1="371.91" x2="88.10" y2="368.89"/>
<line x1="84.27" y1="371.40" x2="88.10" y2="368.39"/>
<line x1="88.10" y1="370.40" x2="88.10" y2="367.39"/>
<polyline points="
 88.10, 364.80 88.10, 362.80 81.40, 362.80 81.40, 364.80"/>
<polyline points="
 79.01, 363.30 78.53, 362.80 78.05, 363.30 78.53, 363.80 79.01, 363.30"/>
<polyline points="
 81.40, 363.30 88.10, 363.30 88.10, 361.29"/>
<polyline points="
 82.84, 352.68 83.32, 353.18 83.79, 352.68 83.32, 352.18 82.84, 352.18
 81.88, 353.18 81.40, 354.19 81.40, 355.69"/>
<polyline points="
 81.40, 355.69 81.88, 357.20 82.84, 358.20 84.27, 358.71 85.23, 358.71
 86.66, 358.20 87.62, 357.20 88.10, 355.69 88.10, 354.69"/>
<polyline points="
 88.10, 354.69 87.62, 353.18 86.66, 352.18"/>
<polyline points="
 81.40, 355.69 81.88, 356.70 82.84, 357.70 84.27, 358.20 85.23, 358.20
 86.66, 357.70 87.62, 356.70 88.10, 355.69"/>
<polyline points="
 88.10, 349.60 88.10, 347.59 78.05, 347.59 78.05, 349.60"/>
<polyline points="
 78.05, 348.09 88.10, 348.09 88.10, 346.08"/>
<line x1="86.19" y1="347.59" x2="81.40" y2="342.56"/>
<line x1="81.40" y1="344.07" x2="81.40" y2="341.06"/>
<line x1="84.27" y1="345.58" x2="88.10" y2="342.56"/>
<line x1="84.27" y1="345.08" x2="88.10" y2="342.06"/>
<line x1="88.10" y1="344.07" x2="88.10" y2="341.06"/>
<line x1="89.05" y1="338.48" x2="89.05" y2="329.44"/>
<polyline points="
 82.84, 320.83 83.32, 321.33 83.79, 320.83 83.32, 320.33 82.84, 320.33
 81.88, 321.33 81.40, 322.33 81.40, 323.84"/>
<polyline points="
 81.40, 323.84 81.88, 325.35 82.84, 326.35 84.27, 326.85 85.23, 326.85
 86.66, 326.35 87.62, 325.35 88.10, 323.84 88.10, 322.84"/>
<polyline points="
 88.10, 322.84 87.62, 321.33 86.66, 320.33"/>
<polyline points="
 81.40, 323.84 81.88, 324.84 82.84, 325.85 84.27, 326.35 85.23, 326.35
 86.66, 325.85 87.62, 324.84 88.10, 323.84"/>
<polyline points="
 88.10, 313.72 87.62, 312.22 86.66, 311.21 85.23, 310.71 84.27, 310.71
 82.84, 311.21 81.88, 312.22 81.40, 313.72 81.40, 314.73 81.88, 316.24
 82.84, 317.24 84.27, 317.74 85.23, 317.74 86.66, 317.24 87.62, 316.24
 88.10, 314.73 88.10, 313.72 87.62, 312.72 86.66, 311.72 85.23, 311.21
 84.27, 311.21 82.84, 311.72 81.88, 312.72 81.40, 313.72 81.40, 314.73
 81.88, 315.73 82.84, 316.74 84.27, 317.24 85.23, 317.24 86.66, 316.74
 87.62, 315.73 88.10, 314.73"/>
<polyline points="
 88.10, 304.61 87.62, 306.12 86.66, 306.62 81.40, 306.62"/>
<polyline points="
 81.40, 308.13 81.40, 306.12 86.66, 306.12 87.62, 305.62 88.10, 304.61
 88.10, 303.61 87.62, 302.10 86.66, 301.10"/>
<polyline points="
 88.10, 300.60 81.40, 300.60 81.40, 302.60"/>
<polyline points="
 81.40, 301.10 88.10, 301.10 88.10, 299.09"/>
<polyline points="
 88.10, 296.51 88.10, 294.50 81.40, 294.50 81.40, 296.51"/>
<polyline points="
 81.40, 295.00 88.10, 295.00 88.10, 292.99"/>
<polyline points="
 82.84, 294.50 81.88, 293.49 81.40, 291.99 81.40, 290.98 81.88, 289.48
 82.84, 288.97 88.10, 288.97"/>
<line x1="88.10" y1="290.98" x2="88.10" y2="287.47"/>
<polyline points="
 88.10, 289.48 82.84, 289.48 81.88, 289.98 81.40, 290.98"/>
<polyline points="
 88.10, 281.87 87.62, 282.37 86.19, 282.88 78.05, 282.88"/>
<line x1="81.40" y1="284.88" x2="81.40" y2="280.87"/>
<polyline points="
 78.05, 283.38 86.19, 283.38 87.62, 282.88 88.10, 281.87 88.10, 280.87
 87.62, 279.86 86.66, 279.36"/>
<polyline points="
 91.45, 269.68 91.45, 267.67 81.40, 267.67 81.40, 269.68"/>
<polyline points="
 81.40, 268.17 91.45, 268.17 91.45, 266.16"/>
<polyline points="
 86.66, 267.67 87.62, 266.66 88.10, 265.66"/>
<polyline points="
 88.10, 265.66 88.10, 264.65 87.62, 263.65 86.66, 262.64 85.23, 262.14
 84.27, 262.14 82.84, 262.64 81.88, 263.65 81.40, 264.65 81.40, 265.66
 81.88, 266.66 82.84, 267.67"/>
<polyline points="
 88.10, 264.65 87.62, 263.15 86.66, 262.14 85.23, 261.64 84.27, 261.64
 82.84, 262.14 81.88, 263.15 81.40, 264.65"/>
<polyline points="
 84.27, 258.56 84.27, 252.53 83.32, 252.53 82.36, 253.03 81.88, 253.53
 81.40, 254.54 81.40, 256.04"/>
<polyline points="
 81.40, 256.04 81.88, 257.55 82.84, 258.56 84.27, 259.06 85.23, 259.06
 86.66, 258.56 87.62, 257.55 88.10, 256.04 88.10, 255.04"/>
<polyline points="
 88.10, 255.04 87.62, 253.53 86.66, 252.53"/>
<polyline points="
 84.27, 253.03 82.84, 253.03 81.88, 253.53"/>
<polyline points="
 81.40, 256.04 81.88, 257.05 82.84, 258.05 84.27, 258.56 85.23, 258.56
 86.66, 258.05 87.62, 257.05 88.10, 256.04"/>
<polyline points="
 88.10, 249.95 88.10, 247.94 81.40, 247.94 81.40, 249.95"/>
<polyline points="
 81.40, 248.44 88.10, 248.44 88.10, 246.43"/>
<polyline points="
 84.27, 247.94 82.84, 247.44 81.88, 246.43 81.40, 245.43 81.40, 243.92
 81.88, 243.42 82.36, 243.42 82.84, 243.92 82.36, 244.42 81.88, 243.92"/>
<polyline points="
 88.10, 233.73 88.10, 231.72 78.05, 231.72 78.05, 233.73"/>
<polyline points="
 78.05, 232.23 88.10, 232.23 88.10, 230.22"/>
<polyline points="
 88.10, 227.64 88.10, 225.63 81.40, 225.63 81.40, 227.64"/>
<polyline points="
 79.01, 226.13 78.53, 225.63 78.05, 226.13 78.53, 226.63 79.01, 226.13"/>
<polyline points="
 81.40, 226.13 88.10, 226.13 88.10, 224.12"/>
<line x1="81.40" y1="221.54" x2="81.40" y2="218.52"/>
<polyline points="
 81.40, 220.53 88.10, 217.52 81.40, 214.51"/>
<line x1="81.40" y1="216.52" x2="81.40" y2="213.50"/>
<line x1="81.40" y1="220.03" x2="87.14" y2="217.52"/>
<polyline points="
 84.27, 210.42 84.27, 204.39 83.32, 204.39 82.36, 204.89 81.88, 205.40
 81.40, 206.40 81.40, 207.91"/>
<polyline points="
 81.40, 207.91 81.88, 209.41 82.84, 210.42 84.27, 210.92 85.23, 210.92
 86.66, 210.42 87.62, 209.41 88.10, 207.91 88.10, 206.90"/>
<polyline points="
 88.10, 206.90 87.62, 205.40 86.66, 204.39"/>
<polyline points="
 84.27, 204.89 82.84, 204.89 81.88, 205.40"/>
<polyline points="
 81.40, 207.91 81.88, 208.91 82.84, 209.92 84.27, 210.42 85.23, 210.42
 86.66, 209.92 87.62, 208.91 88.10, 207.91"/>
<polyline points="
 82.84, 188.68 83.32, 189.18 83.79, 188.68 83.32, 188.18 82.84, 188.18
 81.88, 189.18 81.40, 190.19 81.40, 191.69"/>
<polyline points="
 81.40, 191.69 81.88, 193.20 82.84, 194.20 84.27, 194.71 85.23, 194.71
 86.66, 194.20 87.62, 193.20 88.10, 191.69 88.10, 190.69"/>
<polyline points="
 88.10, 190.69 87.62, 189.18 86.66, 188.18"/>
<polyline points="
 81.40, 191.69 81.88, 192.70 82.84, 193.70 84.27, 194.20 85.23, 194.20
 86.66, 193.70 87.62, 192.70 88.10, 191.69"/>
<polyline points="
 84.27, 185.09 84.27, 179.07 83.32, 179.07 82.36, 179.57 81.88, 180.07
 81.40, 181.08 81.40, 182.58"/>
<polyline points="
 81.40, 182.58 81.88, 184.09 82.84, 185.09 84.27, 185.59 85.23, 185.59
 86.66, 185.09 87.62, 184.09 88.10, 182.58 88.10, 181.58"/>
<polyline points="
 88.10, 181.58 87.62, 180.07 86.66, 179.07"/>
<polyline points="
 84.27, 179.57 82.84, 179.57 81.88, 180.07"/>
<polyline points="
 81.40, 182.58 81.88, 183.59 82.84, 184.59 84.27, 185.09 85.23, 185.09
 86.66, 184.59 87.62, 183.59 88.10, 182.58"/>
<polyline points="
 88.10, 176.48 88.10, 174.47 78.05, 174.47 78.05, 176.48"/>
<polyline points="
 78.05, 174.98 88.10, 174.98 88.10, 172.97"/>
<polyline points="
 88.10, 170.39 88.10, 168.38 78.05, 168.38 78.05, 170.39"/>
<polyline points="
 78.05, 168.88 88.10, 168.88 88.10, 166.87"/>
<line x1="120.53" y1="143.77" x2="745.82" y2="143.77"/>
<line x1="120.53" y1="143.77" x2="120.53" y2="136.88"/>
<line x1="148.93" y1="139.18" x2="148.93" y2="143.77"/>
<line x1="177.34" y1="143.77" x2="177.34" y2="136.88"/>
<line x1="205.75" y1="139.18" x2="205.75" y2="143.77"/>
<line x1="234.16" y1="143.77" x2="234.16" y2="136.88"/>
<line x1="262.57" y1="139.18" x2="262.57" y2="143.77"/>
<line x1="290.98" y1="143.77" x2="290.98" y2="136.88"/>
<line x1="319.39" y1="139.18" x2="319.39" y2="143.77"/>
<line x1="347.80" y1="143.77" x2="347.80" y2="136.88"/>
<line x1="376.21" y1="139.18" x2="376.21" y2="143.77"/>
<line x1="404.62" y1="143.77" x2="404.62" y2="136.88"/>
<line x1="433.32" y1="139.18" x2="433.32" y2="143.77"/>
<line x1="461.73" y1="143.77" x2="461.73" y2="136.88"/>
<line x1="490.14" y1="139.18" x2="490.14" y2="143.77"/>
<line x1="518.55" y1="143.77" x2="518.55" y2="136.88"/>
<line x1="546.96" y1="139.18" x2="546.96" y2="143.77"/>
<line x1="575.37" y1="143.77" x2="575.37" y2="136.88"/>
<line x1="603.78" y1="139.18" x2="603.78" y2="143.77"/>
<line x1="632.18" y1="143.77" x2="632.18" y2="136.88"/>
<line x1="660.59" y1="139.18" x2="660.59" y2="143.77"/>
<line x1="689.00" y1="143.77" x2="689.00" y2="136.88"/>
<line x1="717.41" y1="139.18" x2="717.41" y2="143.77"/>
<line x1="745.82" y1="143.77" x2="745.82" y2="136.88"/>
<line x1="745.82" y1="398.88" x2="745.82" y2="143.77"/>
<line x1="752.71" y1="398.88" x2="745.82" y2="398.88"/>
<line x1="745.82" y1="367.03" x2="750.41" y2="367.03"/>
<line x1="752.71" y1="335.18" x2="745.82" y2="335.18"/>
<line x1="745.82" y1="303.32" x2="750.41" y2="303.32"/>
<line x1="752.71" y1="271.47" x2="745.82" y2="271.47"/>
<line x1="745.82" y1="239.33" x2="750.41" y2="239.33"/>
<line x1="752.71" y1="207.48" x2="745.82" y2="207.48"/>
<line x1="745.82" y1="175.62" x2="750.41" y2="175.62"/>
<line x1="752.71" y1="143.77" x2="745.82" y2="143.77"/>
<polyline points="
 120.53, 143.77 745.82, 143.77 745.82, 398.88 120.53, 398.88 120.53, 143.77"/>
</g>
<g fill="none" stroke="#00ffff" stroke-width="1.000">
<polyline points="
 126.35, 366.99 137.99, 366.99 149.63, 366.99 161.27, 366.99 172.91, 366.99
 178.73, 366.99 184.56, 366.99 196.20, 366.99 207.84, 366.99 219.48, 366.99
 231.12, 366.99 242.77, 366.99 254.41, 366.99 262.64, 366.99 266.05, 335.10
 277.69, 335.10 289.33, 335.10 300.97, 335.10 312.62, 335.10 324.26, 335.10
 335.90, 335.10 347.54, 335.10 359.18, 335.10 370.83, 335.10 382.47, 335.10
 394.11, 335.10 405.75, 303.21 417.39, 303.21 429.04, 303.21 440.68, 303.21
 452.32, 303.21 463.96, 303.21 475.60, 303.21 487.25, 303.21 498.89, 303.21
 510.53, 303.21 522.17, 303.21 533.81, 303.21 545.45, 303.21 557.10, 271.33
 568.74, 271.33 580.38, 271.33 592.02, 271.33 603.66, 271.33 615.31, 271.33
 626.95, 271.33 638.59, 271.33 650.23, 271.33 661.87, 271.33 673.52, 271.33
 673.52, 366.99 661.87, 366.99 650.23, 366.99 638.59, 366.99 626.95, 366.99
 615.31, 366.99 603.66, 366.99 592.02, 366.99 580.38, 366.99 568.74, 366.99
 557.10, 366.99 545.45, 366.99 533.81, 366.99 522.17, 366.99 510.53, 366.99
 498.89, 366.99 487.25, 366.99 475.60, 366.99 463.96, 366.99 452.32, 366.99
 440.68, 366.99 429.04, 366.99 417.39, 366.99 405.75, 366.99 394.11, 366.99
 382.47, 366.99 370.83, 366.99 359.18, 366.99 347.54, 366.99 335.90, 366.99
 324.26, 366.99 312.62, 366.99 300.97, 366.99 289.33, 366.99 277.69, 366.99
 266.05, 366.99 262.64, 366.99 254.41, 366.99 242.77, 366.99 231.12, 366.99
 219.48, 366.99 207.84, 366.99 196.20, 366.99 184.56, 366.99 178.73, 366.99
 172.91, 366.99 161.27, 366.99 149.63, 366.99 137.99, 366.99 126.35, 366.99"/>
<polygon fill="#00ffff" points="
 126.35, 366.99 137.99, 366.99 149.63, 366.99 161.27, 366.99 172.91, 366.99
 178.73, 366.99 184.56, 366.99 196.20, 366.99 207.84, 366.99 219.48, 366.99
 231.12, 366.99 242.77, 366.99 254.41, 366.99 262.64, 366.99 266.05, 335.10
 277.69, 335.10 289.33, 335.10 300.97, 335.10 312.62, 335.10 324.26, 335.10
 335.90, 335.10 347.54, 335.10 359.18, 335.10 370.83, 335.10 382.47, 335.10
 394.11, 335.10 405.75, 303.21 417.39, 303.21 429.04, 303.21 440.68, 303.21
 452.32, 303.21 463.96, 303.21 475.60, 303.21 487.25, 303.21 498.89, 303.21
 510.53, 303.21 522.17, 303.21 533.81, 303.21 545.45, 303.21 557.10, 271.33
 568.74, 271.33 580.38, 271.33 592.02, 271.33 603.66, 271.33 615.31, 271.33
 626.95, 271.33 638.59, 271.33 650.23, 271.33 661.87, 271.33 673.52, 271.33
 673.52, 366.99 661.87, 366.99 650.23, 366.99 638.59, 366.99 626.95, 366.99
 615.31, 366.99 603.66, 366.99 592.02, 366.99 580.38, 366.99 568.74, 366.99
 557.10, 366.99 545.45, 366.99 533.81, 366.99 522.17, 366.99 510.53, 366.99
 498.89, 366.99 487.25, 366.99 475.60, 366.99 463.96, 366.99 452.32, 366.99
 440.68, 366.99 429.04, 366.99 417.39, 366.99 405.75, 366.99 394.11, 366.99
 382.47, 366.99 370.83, 366.99 359.18, 366.99 347.54, 366.99 335.90, 366.99
 324.26, 366.99 312.62, 366.99 300.97, 366.99 289.33, 366.99 277.69, 366.99
 266.05, 366.99 262.64, 366.99 254.41, 366.99 242.77, 366.99 231.12, 366.99
 219.48, 366.99 207.84, 366.99 196.20, 366.99 184.56, 366.99 178.73, 366.99
 172.91, 366.99 161.27, 366.99 149.63, 366.99 137.99, 366.99 126.35, 366.99"/>
<line x1="126.35" y1="366.99" x2="126.35" y2="366.99"/>
</g>
<g fill="none" stroke="#000000" stroke-width="1.000">
<line x1="177.34" y1="144.06" x2="177.34" y2="398.59"/>
<line x1="234.16" y1="398.59" x2="234.16" y2="144.06"/>
<line x1="290.98" y1="144.06" x2="290.98" y2="398.59"/>
<line x1="347.80" y1="398.59" x2="347.80" y2="144.06"/>
<line x1="404.62" y1="144.06" x2="404.62" y2="398.59"/>
<line x1="461.73" y1="398.59" x2="461.73" y2="144.06"/>
<line x1="518.55" y1="144.06" x2="518.55" y2="398.59"/>
<line x1="575.37" y1="398.59" x2="575.37" y2="144.06"/>
<line x1="632.18" y1="144.06" x2="632.18" y2="398.59"/>
<line x1="689.00" y1="398.59" x2="689.00" y2="144.06"/>
<line x1="745.54" y1="335.18" x2="120.81" y2="335.18"/>
<line x1="120.81" y1="271.47" x2="745.54" y2="271.47"/>
<line x1="745.54" y1="207.48" x2="120.81" y2="207.48"/>
</g>
<g fill="none" stroke="#0000ff" stroke-width="3.000">
<polyline points="
 126.35, 366.99 137.99, 366.99 149.63, 366.99 161.27, 366.99 172.91, 366.99
 178.73, 366.99 184.56, 366.99 196.20, 366.99 207.84, 366.99 219.48, 366.99
 231.12, 366.99 242.77, 366.99 254.41, 366.99 262.64, 366.99 266.05, 366.99
 277.69, 366.99 289.33, 366.99 300.97, 366.99 312.62, 366.99 324.26, 366.99
 335.90, 366.99 347.54, 366.99 359.18, 366.99 370.83, 366.99 382.47, 366.99
 394.11, 366.99 405.75, 366.99 417.39, 366.99 429.04, 366.99 440.68, 366.99
 452.32, 366.99 463.96, 366.99 475.60, 366.99 487.25, 366.99 498.89, 366.99
 510.53, 366.99 522.17, 366.99 533.81, 366.99 545.45, 366.99 557.10, 366.99
 568.74, 366.99 580.38, 366.99 592.02, 366.99 603.66, 366.99 615.31, 366.99
 626.95, 366.99 638.59, 366.99 650.23, 366.99 661.87, 366.99 673.52, 366.99"/>
<polyline points="
 126.35, 366.99 137.99, 366.99 149.63, 366.99 161.27, 366.99 172.91, 366.99
 178.73, 366.99 184.56, 366.99 196.20, 366.99 207.84, 366.99 219.48, 366.99
 231.12, 366.99 242.77, 366.99 254.41, 366.99 262.64, 366.99 266.05, 335.10
 277.69, 335.10 289.33, 335.10 300.97, 335.10 312.62, 335.10 324.26, 335.10
 335.90, 335.10 347.54, 335.10 359.18, 335.10 370.83, 335.10 382.47, 335.10
 394.11, 335.10 405.75, 303.21 417.39, 303.21 429.04, 303.21 440.68, 303.21
 452.32, 303.21 463.96, 303.21 475.60, 303.21 487.25, 303.21 498.89, 303.21
 510.53, 303.21 522.17, 303.21 533.81, 303.21 545.45, 303.21 557.10, 271.33
 568.74, 271.33 580.38, 271.33 592.02, 271.33 603.66, 271.33 615.31, 271.33
 626.95, 271.33 638.59, 271.33 650.23, 271.33 661.87, 271.33 673.52, 271.33"/>
</g>
<g fill="none" stroke="#ff0000" stroke-width="3.000">
<line x1="126.35" y1="366.99" x2="129.22" y2="366.99"/>
<line x1="132.09" y1="366.99" x2="134.96" y2="366.99"/>
<polyline points="
 137.82, 366.99 137.99, 366.99 140.69, 366.99"/>
<line x1="143.56" y1="366.99" x2="146.43" y2="366.99"/>
<polyline points="
 149.30, 366.99 149.63, 366.99 152.17, 366.99"/>
<line x1="155.04" y1="366.99" x2="157.91" y2="366.99"/>
<polyline points="
 160.78, 366.99 161.27, 366.99 163.65, 366.99"/>
<line x1="166.52" y1="366.99" x2="169.39" y2="366.99"/>
<polyline points="
 172.26, 366.99 172.91, 366.99 175.13, 366.99"/>
<polyline points="
 178.00, 366.99 178.73, 366.99 180.87, 366.99"/>
<polyline points="
 183.74, 366.99 184.56, 366.99 186.61, 366.99"/>
<line x1="189.48" y1="366.99" x2="192.35" y2="366.99"/>
<polyline points="
 195.22, 366.99 196.20, 366.99 198.09, 366.99"/>
<line x1="200.96" y1="366.99" x2="203.83" y2="366.99"/>
<polyline points="
 206.70, 366.99 207.84, 366.99 209.57, 366.99"/>
<line x1="212.44" y1="366.99" x2="215.31" y2="366.99"/>
<polyline points="
 218.18, 366.99 219.48, 366.99 221.04, 366.99"/>
<line x1="223.91" y1="366.99" x2="226.78" y2="366.99"/>
<polyline points="
 229.65, 366.99 231.12, 366.99 232.52, 366.99"/>
<line x1="235.39" y1="366.99" x2="238.26" y2="366.99"/>
<polyline points="
 241.13, 366.99 242.77, 366.99 244.00, 366.99"/>
<line x1="246.87" y1="366.99" x2="249.74" y2="366.99"/>
<polyline points="
 252.61, 366.99 254.41, 366.99 255.48, 366.99"/>
<line x1="258.35" y1="366.99" x2="261.22" y2="366.99"/>
<polyline points="
 264.09, 366.99 266.05, 366.99 266.96, 366.99"/>
<line x1="269.83" y1="366.99" x2="272.70" y2="366.99"/>
<polyline points="
 275.57, 366.99 277.69, 366.99 278.44, 366.99"/>
<line x1="281.31" y1="366.99" x2="284.18" y2="366.99"/>
<polyline points="
 287.05, 366.99 289.33, 366.99 289.92, 366.99"/>
<line x1="292.79" y1="366.99" x2="295.66" y2="366.99"/>
<polyline points="
 298.53, 366.99 300.97, 366.99 301.40, 366.99"/>
<line x1="304.26" y1="366.99" x2="307.13" y2="366.99"/>
<polyline points="
 310.00, 366.99 312.62, 366.99 312.87, 366.99"/>
<line x1="315.74" y1="366.99" x2="318.61" y2="366.99"/>
<polyline points="
 321.48, 366.99 324.26, 366.99 324.35, 366.99"/>
<line x1="327.22" y1="366.99" x2="330.09" y2="366.99"/>
<line x1="332.96" y1="366.99" x2="335.83" y2="366.99"/>
<line x1="338.70" y1="366.99" x2="341.57" y2="366.99"/>
<line x1="344.44" y1="366.99" x2="347.31" y2="366.99"/>
<line x1="350.18" y1="366.99" x2="353.05" y2="366.99"/>
<line x1="355.92" y1="366.99" x2="358.79" y2="366.99"/>
<line x1="361.66" y1="366.99" x2="364.53" y2="366.99"/>
<line x1="367.40" y1="366.99" x2="370.27" y2="366.99"/>
<line x1="373.14" y1="366.99" x2="376.01" y2="366.99"/>
<line x1="378.88" y1="366.99" x2="381.75" y2="366.99"/>
<line x1="384.62" y1="366.99" x2="387.48" y2="366.99"/>
<line x1="390.35" y1="366.99" x2="393.22" y2="366.99"/>
<line x1="396.09" y1="366.99" x2="398.96" y2="366.99"/>
<line x1="401.83" y1="366.99" x2="404.70" y2="366.99"/>
<line x1="407.57" y1="366.99" x2="410.44" y2="366.99"/>
<line x1="413.31" y1="366.99" x2="416.18" y2="366.99"/>
<line x1="419.05" y1="366.99" x2="421.92" y2="366.99"/>
<line x1="424.79" y1="366.99" x2="427.66" y2="366.99"/>
<line x1="430.53" y1="366.99" x2="433.40" y2="366.99"/>
<line x1="436.27" y1="366.99" x2="439.14" y2="366.99"/>
<line x1="442.01" y1="366.99" x2="444.88" y2="366.99"/>
<line x1="447.75" y1="366.99" x2="450.62" y2="366.99"/>
<line x1="453.49" y1="366.99" x2="456.36" y2="366.99"/>
<line x1="459.23" y1="366.99" x2="462.10" y2="366.99"/>
<line x1="464.97" y1="366.99" x2="467.84" y2="366.99"/>
<line x1="470.70" y1="366.99" x2="473.57" y2="366.99"/>
<line x1="476.44" y1="366.99" x2="479.31" y2="366.99"/>
<line x1="482.18" y1="366.99" x2="485.05" y2="366.99"/>
<line x1="487.92" y1="366.99" x2="490.79" y2="366.99"/>
<line x1="493.66" y1="366.99" x2="496.53" y2="366.99"/>
<line x1="499.40" y1="366.99" x2="502.27" y2="366.99"/>
<line x1="505.14" y1="366.99" x2="508.01" y2="366.99"/>
<line x1="510.88" y1="366.99" x2="513.75" y2="366.99"/>
<line x1="516.62" y1="366.99" x2="519.49" y2="366.99"/>
<line x1="522.36" y1="366.99" x2="525.23" y2="366.99"/>
<line x1="528.10" y1="366.99" x2="530.97" y2="366.99"/>
<line x1="533.84" y1="366.99" x2="536.71" y2="366.99"/>
<line x1="539.58" y1="366.99" x2="542.45" y2="366.99"/>
<polyline points="
 545.32, 366.99 545.45, 366.99 548.19, 366.99"/>
<line x1="551.06" y1="366.99" x2="553.92" y2="366.99"/>
<polyline points="
 556.79, 366.99 557.10, 366.99 559.66, 366.99"/>
<line x1="562.53" y1="366.99" x2="565.40" y2="366.99"/>
<polyline points="
 568.27, 366.99 568.74, 366.99 571.14, 366.99"/>
<line x1="574.01" y1="366.99" x2="576.88" y2="366.99"/>
<polyline points="
 579.75, 366.99 580.38, 366.99 582.62, 366.99"/>
<line x1="585.49" y1="366.99" x2="588.36" y2="366.99"/>
<polyline points="
 591.23, 366.99 592.02, 366.99 594.10, 366.99"/>
<line x1="596.97" y1="366.99" x2="599.84" y2="366.99"/>
<polyline points="
 602.71, 366.99 603.66, 366.99 605.58, 366.99"/>
<line x1="608.45" y1="366.99" x2="611.32" y2="366.99"/>
<polyline points="
 614.19, 366.99 615.31, 366.99 617.06, 366.99"/>
<line x1="619.93" y1="366.99" x2="622.80" y2="366.99"/>
<polyline points="
 625.67, 366.99 626.95, 366.99 628.54, 366.99"/>
<line x1="631.41" y1="366.99" x2="634.27" y2="366.99"/>
<polyline points="
 637.14, 366.99 638.59, 366.99 640.01, 366.99"/>
<line x1="642.88" y1="366.99" x2="645.75" y2="366.99"/>
<polyline points="
 648.62, 366.99 650.23, 366.99 651.49, 366.99"/>
<line x1="654.36" y1="366.99" x2="657.23" y2="366.99"/>
<polyline points="
 660.10, 366.99 661.87, 366.99 662.97, 366.99"/>
<line x1="665.84" y1="366.99" x2="668.71" y2="366.99"/>
<line x1="671.58" y1="366.99" x2="673.52" y2="366.99"/>
<line x1="126.35" y1="366.99" x2="129.22" y2="366.99"/>
<line x1="132.09" y1="366.99" x2="134.96" y2="366.99"/>
<polyline points="
 137.82, 366.99 137.99, 366.99 140.69, 366.99"/>
<line x1="143.56" y1="366.99" x2="146.43" y2="366.99"/>
<polyline points="
 149.30, 366.99 149.63, 366.99 152.17, 366.99"/>
<line x1="155.04" y1="366.99" x2="157.91" y2="366.99"/>
<polyline points="
 160.78, 366.99 161.27, 366.99 163.65, 366.99"/>
<line x1="166.52" y1="366.99" x2="169.39" y2="366.99"/>
<polyline points="
 172.26, 366.99 172.91, 366.99 175.13, 366.99"/>
<polyline points="
 178.00, 366.99 178.73, 366.99 180.87, 366.99"/>
<polyline points="
 183.74, 366.99 184.56, 366.99 186.61, 366.99"/>
<line x1="189.48" y1="366.99" x2="192.35" y2="366.99"/>
<polyline points="
 195.22, 366.99 196.20, 366.99 198.09, 366.99"/>
<line x1="200.96" y1="366.99" x2="203.83" y2="366.99"/>
<polyline points="
 206.70, 366.99 207.84, 366.99 209.57, 366.99"/>
<line x1="212.44" y1="366.99" x2="215.31" y2="366.99"/>
<polyline points="
 218.18, 366.99 219.48, 366.99 221.04, 366.99"/>
<line x1="223.91" y1="366.99" x2="226.78" y2="366.99"/>
<polyline points="
 229.65, 366.99 231.12, 366.99 232.52, 366.99"/>
<line x1="235.39" y1="366.99" x2="238.26" y2="366.99"/>
<polyline points="
 241.13, 366.99 242.77, 366.99 244.00, 366.99"/>
<line x1="246.87" y1="366.99" x2="249.74" y2="366.99"/>
<polyline points="
 252.61, 366.99 254.41, 366.99 255.48, 366.99"/>
<line x1="258.35" y1="366.99" x2="261.22" y2="366.99"/>
<line x1="262.79" y1="365.55" x2="263.10" y2="362.70"/>
<line x1="263.40" y1="359.84" x2="263.71" y2="356.99"/>
<line x1="264.01" y1="354.14" x2="264.32" y2="351.28"/>
<line x1="264.62" y1="348.43" x2="264.93" y2="345.58"/>
<line x1="265.23" y1="342.72" x2="265.54" y2="339.87"/>
<polyline points="
 265.84, 337.02 266.05, 335.10 267.00, 335.10"/>
<line x1="269.87" y1="335.10" x2="272.74" y2="335.10"/>
<polyline points="
 275.60, 335.10 277.69, 335.10 278.47, 335.10"/>
<line x1="281.34" y1="335.10" x2="284.21" y2="335.10"/>
<polyline points="
 287.08, 335.10 289.33, 335.10 289.95, 335.10"/>
<line x1="292.82" y1="335.10" x2="295.69" y2="335.10"/>
<polyline points="
 298.56, 335.10 300.97, 335.10 301.43, 335.10"/>
<line x1="304.30" y1="335.10" x2="307.17" y2="335.10"/>
<polyline points="
 310.04, 335.10 312.62, 335.10 312.91, 335.10"/>
<line x1="315.78" y1="335.10" x2="318.65" y2="335.10"/>
<polyline points="
 321.52, 335.10 324.26, 335.10 324.39, 335.10"/>
<line x1="327.26" y1="335.10" x2="330.13" y2="335.10"/>
<line x1="333.00" y1="335.10" x2="335.87" y2="335.10"/>
<line x1="338.74" y1="335.10" x2="341.61" y2="335.10"/>
<line x1="344.48" y1="335.10" x2="347.35" y2="335.10"/>
<line x1="350.22" y1="335.10" x2="353.09" y2="335.10"/>
<line x1="355.95" y1="335.10" x2="358.82" y2="335.10"/>
<line x1="361.69" y1="335.10" x2="364.56" y2="335.10"/>
<line x1="367.43" y1="335.10" x2="370.30" y2="335.10"/>
<line x1="373.17" y1="335.10" x2="376.04" y2="335.10"/>
<line x1="378.91" y1="335.10" x2="381.78" y2="335.10"/>
<line x1="384.65" y1="335.10" x2="387.52" y2="335.10"/>
<line x1="390.39" y1="335.10" x2="393.26" y2="335.10"/>
<line x1="394.80" y1="333.21" x2="395.79" y2="330.51"/>
<line x1="396.77" y1="327.82" x2="397.76" y2="325.12"/>
<line x1="398.74" y1="322.42" x2="399.72" y2="319.73"/>
<line x1="400.71" y1="317.03" x2="401.69" y2="314.34"/>
<line x1="402.68" y1="311.64" x2="403.66" y2="308.95"/>
<line x1="404.64" y1="306.25" x2="405.63" y2="303.55"/>
<line x1="408.26" y1="303.21" x2="411.13" y2="303.21"/>
<line x1="414.00" y1="303.21" x2="416.87" y2="303.21"/>
<line x1="419.74" y1="303.21" x2="422.61" y2="303.21"/>
<line x1="425.48" y1="303.21" x2="428.35" y2="303.21"/>
<line x1="431.22" y1="303.21" x2="434.09" y2="303.21"/>
<line x1="436.96" y1="303.21" x2="439.83" y2="303.21"/>
<line x1="442.70" y1="303.21" x2="445.57" y2="303.21"/>
<line x1="448.44" y1="303.21" x2="451.30" y2="303.21"/>
<line x1="454.17" y1="303.21" x2="457.04" y2="303.21"/>
<line x1="459.91" y1="303.21" x2="462.78" y2="303.21"/>
<line x1="465.65" y1="303.21" x2="468.52" y2="303.21"/>
<line x1="471.39" y1="303.21" x2="474.26" y2="303.21"/>
<line x1="477.13" y1="303.21" x2="480.00" y2="303.21"/>
<line x1="482.87" y1="303.21" x2="485.74" y2="303.21"/>
<line x1="488.61" y1="303.21" x2="491.48" y2="303.21"/>
<line x1="494.35" y1="303.21" x2="497.22" y2="303.21"/>
<line x1="500.09" y1="303.21" x2="502.96" y2="303.21"/>
<line x1="505.83" y1="303.21" x2="508.70" y2="303.21"/>
<line x1="511.57" y1="303.21" x2="514.44" y2="303.21"/>
<line x1="517.31" y1="303.21" x2="520.18" y2="303.21"/>
<line x1="523.05" y1="303.21" x2="525.92" y2="303.21"/>
<line x1="528.79" y1="303.21" x2="531.66" y2="303.21"/>
<line x1="534.52" y1="303.21" x2="537.39" y2="303.21"/>
<line x1="540.26" y1="303.21" x2="543.13" y2="303.21"/>
<line x1="545.64" y1="302.70" x2="546.63" y2="300.00"/>
<line x1="547.61" y1="297.31" x2="548.60" y2="294.61"/>
<line x1="549.58" y1="291.92" x2="550.56" y2="289.22"/>
<line x1="551.55" y1="286.53" x2="552.53" y2="283.83"/>
<line x1="553.52" y1="281.13" x2="554.50" y2="278.44"/>
<line x1="555.48" y1="275.74" x2="556.47" y2="273.05"/>
<line x1="558.13" y1="271.33" x2="561.00" y2="271.33"/>
<line x1="563.87" y1="271.33" x2="566.74" y2="271.33"/>
<line x1="569.61" y1="271.33" x2="572.48" y2="271.33"/>
<line x1="575.35" y1="271.33" x2="578.22" y2="271.33"/>
<line x1="581.09" y1="271.33" x2="583.96" y2="271.33"/>
<line x1="586.83" y1="271.33" x2="589.70" y2="271.33"/>
<line x1="592.57" y1="271.33" x2="595.44" y2="271.33"/>
<line x1="598.31" y1="271.33" x2="601.18" y2="271.33"/>
<line x1="604.05" y1="271.33" x2="606.92" y2="271.33"/>
<line x1="609.79" y1="271.33" x2="612.66" y2="271.33"/>
<line x1="615.53" y1="271.33" x2="618.40" y2="271.33"/>
<line x1="621.27" y1="271.33" x2="624.14" y2="271.33"/>
<line x1="627.01" y1="271.33" x2="629.87" y2="271.33"/>
<line x1="632.74" y1="271.33" x2="635.61" y2="271.33"/>
<polyline points="
 638.48, 271.33 638.59, 271.33 641.35, 271.33"/>
<line x1="644.22" y1="271.33" x2="647.09" y2="271.33"/>
<polyline points="
 649.96, 271.33 650.23, 271.33 652.83, 271.33"/>
<line x1="655.70" y1="271.33" x2="658.57" y2="271.33"/>
<polyline points="
 661.44, 271.33 661.87, 271.33 664.31, 271.33"/>
<line x1="667.18" y1="271.33" x2="670.05" y2="271.33"/>
<line x1="672.92" y1="271.33" x2="673.52" y2="271.33"/>
</g>
<g fill="none" stroke="#0000ff" stroke-width="6.000">
<polyline points="
 126.35, 366.99 137.99, 366.99 149.63, 366.99 161.27, 366.99 172.91, 366.99
 178.73, 366.99 184.56, 366.99 196.20, 366.99 207.84, 366.99 219.48, 366.99
 231.12, 366.99 242.77, 366.99 254.41, 366.99 262.64, 366.99 266.05, 366.99
 277.69, 366.99 289.33, 366.99 300.97, 366.99 312.62, 366.99 324.26, 366.99
 335.90, 366.99 347.54, 366.99 359.18, 366.99 370.83, 366.99 382.47, 366.99
 394.11, 366.99 405.75, 366.99 417.39, 366.99 429.04, 366.99 440.68, 366.99
 452.32, 366.99 463.96, 366.99 475.60, 366.99 487.25, 335.10 498.89, 335.10
 510.53, 335.10 522.17, 335.10 533.81, 335.10 545.45, 335.10 557.10, 335.10
 568.74, 335.10 580.38, 335.10 592.02, 335.10 603.66, 335.10 615.31, 335.10
 626.95, 335.10 638.59, 335.10 650.23, 335.10 661.87, 335.10 673.52, 335.10"/>
</g>
<g fill="none" stroke="#ff0000" stroke-width="6.000">
<polyline points="
 126.35, 366.99 137.99, 366.99 149.63, 366.99 161.27, 366.99 172.91, 366.99
 178.73, 366.99 184.56, 366.99 196.20, 366.99 207.84, 366.99 219.48, 366.99
 231.12, 366.99 242.77, 366.99 254.41, 366.99 262.64, 366.99 266.05, 366.99
 277.69, 366.99 289.33, 366.99 300.97, 366.99 312.62, 366.99 324.26, 366.99
 335.90, 366.99 347.54, 366.99 359.18, 366.99 370.83, 366.99 382.47, 366.99
 394.11, 366.99 405.75, 366.99 417.39, 366.99 429.04, 366.99 440.68, 366.99
 452.32, 366.99 463.96, 366.99 475.60, 366.99 487.25, 335.10 498.89, 335.10
 510.53, 335.10 522.17, 335.10 533.81, 335.10 545.45, 335.10 557.10, 335.10
 568.74, 335.10 580.38, 335.10 592.02, 335.10 603.66, 335.10 615.31, 335.10
 626.95, 335.10 638.59, 335.10 650.23, 335.10 661.87, 335.10 673.52, 335.10"/>
</g>
<g fill="none" stroke="#000000" stroke-width="1.000">
<line x1="325.65" y1="100.15" x2="325.65" y2="91.83"/>
<line x1="325.23" y1="91.83" x2="325.23" y2="100.15"/>
<polyline points="
 323.98, 100.15 328.98, 100.15 329.81, 99.75 330.23, 99.36 330.64, 98.57
 330.64, 97.38 330.23, 96.58 329.81, 96.19 328.98, 95.79 330.23, 96.19
 330.64, 96.58 331.06, 97.38 331.06, 98.57 330.64, 99.36 330.23, 99.75
 328.98, 100.15"/>
<polyline points="
 325.65, 95.79 328.98, 95.79 329.81, 95.40 330.23, 95.00 330.64, 94.21
 330.64, 93.41 330.23, 92.62 329.81, 92.23 328.98, 91.83 323.98, 91.83"/>
<polyline points="
 328.98, 91.83 330.23, 92.23 330.64, 92.62 331.06, 93.41 331.06, 94.21
 330.64, 95.00 330.23, 95.40 328.98, 95.79"/>
<polyline points="
 336.12, 100.15 334.87, 99.75 334.46, 98.96 334.46, 94.60"/>
<polyline points="
 333.21, 94.60 334.87, 94.60 334.87, 98.96 335.29, 99.75 336.12, 100.15
 336.95, 100.15 338.20, 99.75 339.04, 98.96"/>
<polyline points="
 339.45, 100.15 339.45, 94.60 337.79, 94.60"/>
<polyline points="
 339.04, 94.60 339.04, 100.15 340.70, 100.15"/>
<polyline points="
 342.85, 100.15 344.52, 100.15 344.52, 94.60 342.85, 94.60"/>
<polyline points="
 344.10, 94.60 344.10, 100.15 345.76, 100.15"/>
<polyline points="
 344.52, 95.79 345.35, 95.00 346.60, 94.60 347.43, 94.60 348.68, 95.00
 349.09, 95.79 349.09, 100.15"/>
<line x1="347.43" y1="100.15" x2="350.34" y2="100.15"/>
<polyline points="
 348.68, 100.15 348.68, 95.79 348.26, 95.00 347.43, 94.60"/>
<polyline points="
 357.49, 95.79 357.07, 96.19 357.49, 96.58 357.90, 96.19 357.90, 95.79
 357.07, 95.00 356.24, 94.60 354.99, 94.60"/>
<polyline points="
 354.99, 94.60 353.74, 95.00 352.91, 95.79 352.49, 96.98 352.49, 97.77
 352.91, 98.96 353.74, 99.75 354.99, 100.15 355.82, 100.15"/>
<polyline points="
 355.82, 100.15 357.07, 99.75 357.90, 98.96"/>
<polyline points="
 354.99, 94.60 354.16, 95.00 353.33, 95.79 352.91, 96.98 352.91, 97.77
 353.33, 98.96 354.16, 99.75 354.99, 100.15"/>
<polyline points="
 360.06, 100.15 361.72, 100.15 361.72, 91.83 360.06, 91.83"/>
<polyline points="
 361.30, 91.83 361.30, 100.15 362.97, 100.15"/>
<polyline points="
 361.72, 95.79 362.55, 95.00 363.80, 94.60 364.63, 94.60 365.88, 95.00
 366.30, 95.79 366.30, 100.15"/>
<line x1="364.63" y1="100.15" x2="367.55" y2="100.15"/>
<polyline points="
 365.88, 100.15 365.88, 95.79 365.46, 95.00 364.63, 94.60"/>
<polyline points="
 370.11, 96.98 375.11, 96.98 375.11, 96.19 374.69, 95.40 374.27, 95.00
 373.44, 94.60 372.19, 94.60"/>
<polyline points="
 372.19, 94.60 370.95, 95.00 370.11, 95.79 369.70, 96.98 369.70, 97.77
 370.11, 98.96 370.95, 99.75 372.19, 100.15 373.03, 100.15"/>
<polyline points="
 373.03, 100.15 374.27, 99.75 375.11, 98.96"/>
<polyline points="
 374.69, 96.98 374.69, 95.79 374.27, 95.00"/>
<polyline points="
 372.19, 94.60 371.36, 95.00 370.53, 95.79 370.11, 96.98 370.11, 97.77
 370.53, 98.96 371.36, 99.75 372.19, 100.15"/>
<polyline points="
 382.67, 100.15 382.67, 91.83 381.00, 91.83"/>
<polyline points="
 382.25, 91.83 382.25, 100.15 383.92, 100.15"/>
<polyline points="
 379.76, 94.60 378.51, 95.00 377.68, 95.79 377.26, 96.98 377.26, 97.77
 377.68, 98.96 378.51, 99.75 379.76, 100.15 380.59, 100.15 381.42, 99.75
 382.25, 98.96"/>
<polyline points="
 382.25, 95.79 381.42, 95.00 380.59, 94.60 379.76, 94.60 378.92, 95.00
 378.09, 95.79 377.68, 96.98 377.68, 97.77 378.09, 98.96 378.92, 99.75
 379.76, 100.15"/>
<polyline points="
 394.88, 100.15 395.71, 100.15 396.96, 99.75 397.79, 98.96 398.21, 98.17"/>
<polyline points="
 397.79, 93.02 398.21, 91.83 398.21, 94.21 397.79, 93.02"/>
<polyline points="
 397.79, 93.02 396.96, 92.23 395.71, 91.83 394.88, 91.83 393.63, 92.23
 392.80, 93.02 392.38, 93.81 391.97, 95.40 391.97, 96.58 392.38, 98.17
 392.80, 98.96 393.63, 99.75 394.88, 100.15"/>
<polyline points="
 394.88, 91.83 394.05, 92.23 393.21, 93.02 392.80, 93.81 392.38, 95.40
 392.38, 96.58 392.80, 98.17 393.21, 98.96 394.05, 99.75 394.88, 100.15"/>
<polyline points="
 403.69, 100.15 404.94, 99.75 405.77, 98.96 406.19, 97.77 406.19, 96.98
 405.77, 95.79 404.94, 95.00 403.69, 94.60 402.86, 94.60 401.61, 95.00
 400.78, 95.79 400.36, 96.98 400.36, 97.77 400.78, 98.96 401.61, 99.75
 402.86, 100.15 403.69, 100.15 404.52, 99.75 405.35, 98.96 405.77, 97.77
 405.77, 96.98 405.35, 95.79 404.52, 95.00 403.69, 94.60 402.86, 94.60
 402.02, 95.00 401.19, 95.79 400.78, 96.98 400.78, 97.77 401.19, 98.96
 402.02, 99.75 402.86, 100.15"/>
<polyline points="
 410.00, 100.15 409.17, 99.75 408.75, 98.96 408.75, 98.17 409.17, 97.38
 410.00, 96.98"/>
<polyline points="
 409.17, 95.40 409.17, 95.79 408.75, 95.79 408.75, 95.40 409.17, 95.00
 410.00, 94.60 411.67, 94.60 412.50, 95.00 412.91, 95.40 413.33, 96.19
 413.33, 98.96 413.75, 99.75 414.16, 100.15 414.58, 100.15 414.16, 100.15
 413.33, 99.75 412.91, 98.96 412.91, 95.40 412.91, 96.19 412.50, 96.58
 410.00, 96.98 408.75, 97.38 408.34, 98.17 408.34, 98.96 408.75, 99.75
 410.00, 100.15 411.25, 100.15 412.08, 99.75 412.91, 98.96"/>
<polyline points="
 416.73, 100.15 418.40, 100.15 418.40, 91.83 416.73, 91.83"/>
<polyline points="
 417.98, 91.83 417.98, 100.15 419.64, 100.15"/>
<polyline points="
 422.21, 96.98 427.21, 96.98 427.21, 96.19 426.79, 95.40 426.37, 95.00
 425.54, 94.60 424.29, 94.60"/>
<polyline points="
 424.29, 94.60 423.04, 95.00 422.21, 95.79 421.80, 96.98 421.80, 97.77
 422.21, 98.96 423.04, 99.75 424.29, 100.15 425.12, 100.15"/>
<polyline points="
 425.12, 100.15 426.37, 99.75 427.21, 98.96"/>
<polyline points="
 426.79, 96.98 426.79, 95.79 426.37, 95.00"/>
<polyline points="
 424.29, 94.60 423.46, 95.00 422.63, 95.79 422.21, 96.98 422.21, 97.77
 422.63, 98.96 423.46, 99.75 424.29, 100.15"/>
<polyline points="
 429.77, 99.36 429.36, 100.15 429.36, 98.57 429.77, 99.36 430.19, 99.75
 431.02, 100.15 432.69, 100.15 433.52, 99.75 433.93, 99.36 433.93, 98.17
 433.52, 97.77 432.69, 97.38 430.61, 96.58 429.77, 96.19 429.36, 95.79
 429.36, 95.40 429.77, 95.00 430.61, 94.60 432.27, 94.60 433.10, 95.00
 433.52, 95.40 433.93, 96.19 433.93, 94.60 433.52, 95.40"/>
<polyline points="
 429.36, 95.79 429.36, 96.19 429.77, 96.58 430.61, 96.98 432.69, 97.77
 433.52, 98.17 433.93, 98.57"/>
<polyline points="
 441.08, 95.79 440.66, 96.19 441.08, 96.58 441.50, 96.19 441.50, 95.79
 440.66, 95.00 439.83, 94.60 438.58, 94.60"/>
<polyline points="
 438.58, 94.60 437.34, 95.00 436.50, 95.79 436.09, 96.98 436.09, 97.77
 436.50, 98.96 437.34, 99.75 438.58, 100.15 439.42, 100.15"/>
<polyline points="
 439.42, 100.15 440.66, 99.75 441.50, 98.96"/>
<polyline points="
 438.58, 94.60 437.75, 95.00 436.92, 95.79 436.50, 96.98 436.50, 97.77
 436.92, 98.96 437.75, 99.75 438.58, 100.15"/>
<polyline points="
 444.06, 96.98 449.06, 96.98 449.06, 96.19 448.64, 95.40 448.23, 95.00
 447.39, 94.60 446.14, 94.60"/>
<polyline points="
 446.14, 94.60 444.90, 95.00 444.06, 95.79 443.65, 96.98 443.65, 97.77
 444.06, 98.96 444.90, 99.75 446.14, 100.15 446.98, 100.15"/>
<polyline points="
 446.98, 100.15 448.23, 99.75 449.06, 98.96"/>
<polyline points="
 448.64, 96.98 448.64, 95.79 448.23, 95.00"/>
<polyline points="
 446.14, 94.60 445.31, 95.00 444.48, 95.79 444.06, 96.98 444.06, 97.77
 444.48, 98.96 445.31, 99.75 446.14, 100.15"/>
<polyline points="
 451.21, 100.15 452.87, 100.15 452.87, 94.60 451.21, 94.60"/>
<polyline points="
 452.46, 94.60 452.46, 100.15 454.12, 100.15"/>
<polyline points="
 452.87, 96.98 453.29, 95.79 454.12, 95.00 454.95, 94.60 456.20, 94.60
 456.62, 95.00 456.62, 95.40 456.20, 95.79 455.79, 95.40 456.20, 95.00"/>
<polyline points="
 464.67, 100.15 466.33, 100.15 466.33, 91.83 464.67, 91.83"/>
<polyline points="
 467.58, 91.83 465.92, 91.83 465.92, 100.15 467.58, 100.15"/>
<line x1="466.33" y1="96.98" x2="471.74" y2="91.83"/>
<line x1="470.08" y1="91.83" x2="472.57" y2="91.83"/>
<line x1="468.00" y1="95.79" x2="471.33" y2="100.15"/>
<line x1="468.41" y1="95.79" x2="471.74" y2="100.15"/>
<line x1="470.08" y1="100.15" x2="472.57" y2="100.15"/>
<polyline points="
 474.73, 100.15 476.39, 100.15 476.39, 94.60 474.73, 94.60"/>
<polyline points="
 475.97, 92.62 476.39, 92.23 475.97, 91.83 475.56, 92.23 475.97, 92.62"/>
<polyline points="
 475.97, 94.60 475.97, 100.15 477.64, 100.15"/>
<polyline points="
 484.78, 95.79 484.37, 96.19 484.78, 96.58 485.20, 96.19 485.20, 95.79
 484.37, 95.00 483.54, 94.60 482.29, 94.60"/>
<polyline points="
 482.29, 94.60 481.04, 95.00 480.21, 95.79 479.79, 96.98 479.79, 97.77
 480.21, 98.96 481.04, 99.75 482.29, 100.15 483.12, 100.15"/>
<polyline points="
 483.12, 100.15 484.37, 99.75 485.20, 98.96"/>
<polyline points="
 482.29, 94.60 481.46, 95.00 480.62, 95.79 480.21, 96.98 480.21, 97.77
 480.62, 98.96 481.46, 99.75 482.29, 100.15"/>
<polyline points="
 487.35, 100.15 489.02, 100.15 489.02, 91.83 487.35, 91.83"/>
<polyline points="
 488.60, 91.83 488.60, 100.15 490.27, 100.15"/>
<line x1="489.02" y1="98.57" x2="493.18" y2="94.60"/>
<line x1="491.93" y1="94.60" x2="494.43" y2="94.60"/>
<line x1="490.68" y1="96.98" x2="493.18" y2="100.15"/>
<line x1="491.10" y1="96.98" x2="493.59" y2="100.15"/>
<line x1="491.93" y1="100.15" x2="494.43" y2="100.15"/>
<polyline points="
 505.39, 100.15 506.22, 100.15 507.47, 99.75 508.30, 98.96 508.72, 98.17"/>
<polyline points="
 508.30, 93.02 508.72, 91.83 508.72, 94.21 508.30, 93.02"/>
<polyline points="
 508.30, 93.02 507.47, 92.23 506.22, 91.83 505.39, 91.83 504.14, 92.23
 503.31, 93.02 502.89, 93.81 502.48, 95.40 502.48, 96.58 502.89, 98.17
 503.31, 98.96 504.14, 99.75 505.39, 100.15"/>
<polyline points="
 505.39, 91.83 504.56, 92.23 503.72, 93.02 503.31, 93.81 502.89, 95.40
 502.89, 96.58 503.31, 98.17 503.72, 98.96 504.56, 99.75 505.39, 100.15"/>
<polyline points="
 514.20, 100.15 515.45, 99.75 516.28, 98.96 516.70, 97.77 516.70, 96.98
 516.28, 95.79 515.45, 95.00 514.20, 94.60 513.37, 94.60 512.12, 95.00
 511.29, 95.79 510.87, 96.98 510.87, 97.77 511.29, 98.96 512.12, 99.75
 513.37, 100.15 514.20, 100.15 515.03, 99.75 515.86, 98.96 516.28, 97.77
 516.28, 96.98 515.86, 95.79 515.03, 95.00 514.20, 94.60 513.37, 94.60
 512.53, 95.00 511.70, 95.79 511.29, 96.98 511.29, 97.77 511.70, 98.96
 512.53, 99.75 513.37, 100.15"/>
<polyline points="
 521.76, 100.15 520.51, 99.75 520.10, 98.96 520.10, 94.60"/>
<polyline points="
 518.85, 94.60 520.51, 94.60 520.51, 98.96 520.93, 99.75 521.76, 100.15
 522.59, 100.15 523.84, 99.75 524.67, 98.96"/>
<polyline points="
 525.09, 100.15 525.09, 94.60 523.42, 94.60"/>
<polyline points="
 524.67, 94.60 524.67, 100.15 526.34, 100.15"/>
<polyline points="
 528.49, 100.15 530.15, 100.15 530.15, 94.60 528.49, 94.60"/>
<polyline points="
 529.74, 94.60 529.74, 100.15 531.40, 100.15"/>
<polyline points="
 530.15, 95.79 530.99, 95.00 532.23, 94.60 533.07, 94.60 534.32, 95.00
 534.73, 95.79 534.73, 100.15"/>
<line x1="533.07" y1="100.15" x2="535.98" y2="100.15"/>
<polyline points="
 534.32, 100.15 534.32, 95.79 533.90, 95.00 533.07, 94.60"/>
<polyline points="
 540.63, 100.15 540.21, 99.75 539.80, 98.57 539.80, 91.83"/>
<line x1="538.13" y1="94.60" x2="541.46" y2="94.60"/>
<polyline points="
 539.38, 91.83 539.38, 98.57 539.80, 99.75 540.63, 100.15 541.46, 100.15
 542.29, 99.75 542.71, 98.96"/>
<polyline points="
 180.62, 121.62 180.20, 122.01 180.62, 122.41 181.03, 122.01 181.03, 121.62
 180.20, 120.83 179.37, 120.43 178.12, 120.43"/>
<polyline points="
 178.12, 120.43 176.87, 120.83 176.04, 121.62 175.62, 122.81 175.62, 123.60
 176.04, 124.79 176.87, 125.58 178.12, 125.98 178.95, 125.98"/>
<polyline points="
 178.95, 125.98 180.20, 125.58 181.03, 124.79"/>
<polyline points="
 178.12, 120.43 177.29, 120.83 176.45, 121.62 176.04, 122.81 176.04, 123.60
 176.45, 124.79 177.29, 125.58 178.12, 125.98"/>
<polyline points="
 184.02, 128.36 183.60, 127.96 183.18, 128.36 183.60, 128.75 184.02, 128.75
 184.85, 128.36 185.68, 127.56 189.01, 120.43"/>
<line x1="187.35" y1="120.43" x2="189.84" y2="120.43"/>
<line x1="183.18" y1="120.43" x2="185.68" y2="120.43"/>
<line x1="184.02" y1="120.43" x2="186.51" y2="125.98"/>
<line x1="184.43" y1="120.43" x2="186.51" y2="125.19"/>
<polyline points="
 193.66, 125.98 192.83, 125.58 192.41, 124.79 192.41, 124.00 192.83, 123.20
 193.66, 122.81"/>
<polyline points="
 192.83, 121.22 192.83, 121.62 192.41, 121.62 192.41, 121.22 192.83, 120.83
 193.66, 120.43 195.32, 120.43 196.16, 120.83 196.57, 121.22 196.99, 122.01
 196.99, 124.79 197.40, 125.58 197.82, 125.98 198.24, 125.98 197.82, 125.98
 196.99, 125.58 196.57, 124.79 196.57, 121.22 196.57, 122.01 196.16, 122.41
 193.66, 122.81 192.41, 123.20 191.99, 124.00 191.99, 124.79 192.41, 125.58
 193.66, 125.98 194.91, 125.98 195.74, 125.58 196.57, 124.79"/>
<polyline points="
 200.39, 125.98 202.05, 125.98 202.05, 120.43 200.39, 120.43"/>
<polyline points="
 201.64, 120.43 201.64, 125.98 203.30, 125.98"/>
<polyline points="
 202.05, 121.62 202.88, 120.83 204.13, 120.43 204.96, 120.43 206.21, 120.83
 206.63, 121.62 206.63, 125.98"/>
<line x1="204.96" y1="125.98" x2="207.88" y2="125.98"/>
<polyline points="
 206.21, 125.98 206.21, 121.62 205.80, 120.83 204.96, 120.43"/>
<line x1="215.93" y1="123.60" x2="223.42" y2="123.60"/>
<line x1="215.93" y1="121.22" x2="223.42" y2="121.22"/>
<polyline points="
 231.47, 128.75 233.13, 128.75 233.13, 120.43 231.47, 120.43"/>
<polyline points="
 232.71, 120.43 232.71, 128.75 234.38, 128.75"/>
<polyline points="
 233.13, 124.79 233.96, 125.58 234.79, 125.98"/>
<polyline points="
 234.79, 125.98 235.63, 125.98 236.46, 125.58 237.29, 124.79 237.71, 123.60
 237.71, 122.81 237.29, 121.62 236.46, 120.83 235.63, 120.43 234.79, 120.43
 233.96, 120.83 233.13, 121.62"/>
<polyline points="
 235.63, 125.98 236.88, 125.58 237.71, 124.79 238.12, 123.60 238.12, 122.81
 237.71, 121.62 236.88, 120.83 235.63, 120.43"/>
<polyline points="
 240.69, 122.81 245.69, 122.81 245.69, 122.01 245.27, 121.22 244.85, 120.83
 244.02, 120.43 242.77, 120.43"/>
<polyline points="
 242.77, 120.43 241.52, 120.83 240.69, 121.62 240.28, 122.81 240.28, 123.60
 240.69, 124.79 241.52, 125.58 242.77, 125.98 243.60, 125.98"/>
<polyline points="
 243.60, 125.98 244.85, 125.58 245.69, 124.79"/>
<polyline points="
 245.27, 122.81 245.27, 121.62 244.85, 120.83"/>
<polyline points="
 242.77, 120.43 241.94, 120.83 241.11, 121.62 240.69, 122.81 240.69, 123.60
 241.11, 124.79 241.94, 125.58 242.77, 125.98"/>
<polyline points="
 247.84, 125.98 249.50, 125.98 249.50, 120.43 247.84, 120.43"/>
<polyline points="
 249.09, 120.43 249.09, 125.98 250.75, 125.98"/>
<polyline points="
 249.50, 122.81 249.92, 121.62 250.75, 120.83 251.58, 120.43 252.83, 120.43
 253.25, 120.83 253.25, 121.22 252.83, 121.62 252.41, 121.22 252.83, 120.83"/>
<line x1="255.40" y1="122.41" x2="262.89" y2="122.41"/>
<polyline points="
 266.71, 125.98 266.71, 117.66 265.04, 117.66"/>
<line x1="266.29" y1="117.66" x2="266.29" y2="125.98"/>
<polyline points="
 266.71, 124.79 267.54, 125.58 268.37, 125.98"/>
<polyline points="
 268.37, 125.98 269.20, 125.98 270.03, 125.58 270.87, 124.79 271.28, 123.60
 271.28, 122.81 270.87, 121.62 270.03, 120.83 269.20, 120.43 268.37, 120.43
 267.54, 120.83 266.71, 121.62"/>
<polyline points="
 269.20, 125.98 270.45, 125.58 271.28, 124.79 271.70, 123.60 271.70, 122.81
 271.28, 121.62 270.45, 120.83 269.20, 120.43"/>
<polyline points="
 273.85, 125.98 275.52, 125.98 275.52, 120.43 273.85, 120.43"/>
<polyline points="
 275.10, 118.45 275.52, 118.05 275.10, 117.66 274.68, 118.05 275.10, 118.45"/>
<polyline points="
 275.10, 120.43 275.10, 125.98 276.76, 125.98"/>
<polyline points="
 278.92, 125.98 280.58, 125.98 280.58, 120.43 278.92, 120.43"/>
<polyline points="
 280.16, 120.43 280.16, 125.98 281.83, 125.98"/>
<polyline points="
 280.58, 121.62 281.41, 120.83 282.66, 120.43 283.49, 120.43 284.74, 120.83
 285.16, 121.62 285.16, 125.98"/>
<line x1="283.49" y1="125.98" x2="286.41" y2="125.98"/>
<polyline points="
 284.74, 125.98 284.74, 121.62 284.33, 120.83 283.49, 120.43"/>
<polyline points="
 294.46, 125.98 296.12, 125.98 296.12, 120.43 294.46, 120.43"/>
<polyline points="
 295.70, 120.43 295.70, 125.98 297.37, 125.98"/>
<polyline points="
 296.12, 121.62 296.95, 120.83 298.20, 120.43 299.03, 120.43 300.28, 120.83
 300.70, 121.62 300.70, 125.98"/>
<line x1="299.03" y1="125.98" x2="301.94" y2="125.98"/>
<polyline points="
 300.28, 125.98 300.28, 121.62 299.86, 120.83 299.03, 120.43"/>
<polyline points="
 300.70, 121.62 301.53, 120.83 302.78, 120.43 303.61, 120.43 304.86, 120.83
 305.27, 121.62 305.27, 125.98"/>
<line x1="303.61" y1="125.98" x2="306.52" y2="125.98"/>
<polyline points="
 304.86, 125.98 304.86, 121.62 304.44, 120.83 303.61, 120.43"/>
<polyline points="
 308.67, 125.98 310.34, 125.98 310.34, 120.43 308.67, 120.43"/>
<polyline points="
 309.92, 118.45 310.34, 118.05 309.92, 117.66 309.51, 118.05 309.92, 118.45"/>
<polyline points="
 309.92, 120.43 309.92, 125.98 311.59, 125.98"/>
<polyline points="
 313.74, 125.98 315.40, 125.98 315.40, 120.43 313.74, 120.43"/>
<polyline points="
 314.99, 120.43 314.99, 125.98 316.65, 125.98"/>
<polyline points="
 315.40, 121.62 316.24, 120.83 317.48, 120.43 318.32, 120.43 319.56, 120.83
 319.98, 121.62 319.98, 125.98"/>
<line x1="318.32" y1="125.98" x2="321.23" y2="125.98"/>
<polyline points="
 319.56, 125.98 319.56, 121.62 319.15, 120.83 318.32, 120.43"/>
<polyline points="
 323.80, 125.98 324.21, 125.58 323.80, 125.19 323.38, 125.58 323.80, 125.98"/>
<polyline points="
 326.78, 125.98 327.20, 125.58 326.78, 125.19 326.37, 125.58 326.78, 125.98"/>
<polyline points="
 329.35, 125.98 331.01, 125.98 331.01, 120.43 329.35, 120.43"/>
<polyline points="
 330.60, 120.43 330.60, 125.98 332.26, 125.98"/>
<polyline points="
 331.01, 121.62 331.85, 120.83 333.09, 120.43 333.93, 120.43 335.18, 120.83
 335.59, 121.62 335.59, 125.98"/>
<line x1="333.93" y1="125.98" x2="336.84" y2="125.98"/>
<polyline points="
 335.18, 125.98 335.18, 121.62 334.76, 120.83 333.93, 120.43"/>
<polyline points="
 335.59, 121.62 336.42, 120.83 337.67, 120.43 338.50, 120.43 339.75, 120.83
 340.17, 121.62 340.17, 125.98"/>
<line x1="338.50" y1="125.98" x2="341.42" y2="125.98"/>
<polyline points="
 339.75, 125.98 339.75, 121.62 339.34, 120.83 338.50, 120.43"/>
<polyline points="
 345.23, 125.98 344.40, 125.58 343.99, 124.79 343.99, 124.00 344.40, 123.20
 345.23, 122.81"/>
<polyline points="
 344.40, 121.22 344.40, 121.62 343.99, 121.62 343.99, 121.22 344.40, 120.83
 345.23, 120.43 346.90, 120.43 347.73, 120.83 348.15, 121.22 348.56, 122.01
 348.56, 124.79 348.98, 125.58 349.39, 125.98 349.81, 125.98 349.39, 125.98
 348.56, 125.58 348.15, 124.79 348.15, 121.22 348.15, 122.01 347.73, 122.41
 345.23, 122.81 343.99, 123.20 343.57, 124.00 343.57, 124.79 343.99, 125.58
 345.23, 125.98 346.48, 125.98 347.31, 125.58 348.15, 124.79"/>
<line x1="351.96" y1="125.98" x2="354.46" y2="125.98"/>
<line x1="352.80" y1="125.98" x2="357.79" y2="120.43"/>
<line x1="356.12" y1="120.43" x2="358.62" y2="120.43"/>
<line x1="351.96" y1="120.43" x2="354.46" y2="120.43"/>
<line x1="352.80" y1="120.43" x2="357.37" y2="125.98"/>
<line x1="353.21" y1="120.43" x2="357.79" y2="125.98"/>
<line x1="356.12" y1="125.98" x2="358.62" y2="125.98"/>
<polyline points="
 361.19, 125.98 360.77, 125.58 361.19, 125.19 361.60, 125.58 361.60, 126.37
 361.19, 127.17 360.77, 127.56"/>
<polyline points="
 361.19, 121.22 361.60, 120.83 361.19, 120.43 360.77, 120.83 361.19, 121.22"/>
<polyline points="
 369.65, 125.98 371.32, 125.98 371.32, 120.43 369.65, 120.43"/>
<polyline points="
 370.90, 120.43 370.90, 125.98 372.57, 125.98"/>
<polyline points="
 371.32, 122.81 371.73, 121.62 372.57, 120.83 373.40, 120.43 374.65, 120.43
 375.06, 120.83 375.06, 121.22 374.65, 121.62 374.23, 121.22 374.65, 120.83"/>
<polyline points="
 377.63, 122.81 382.63, 122.81 382.63, 122.01 382.21, 121.22 381.79, 120.83
 380.96, 120.43 379.71, 120.43"/>
<polyline points="
 379.71, 120.43 378.46, 120.83 377.63, 121.62 377.22, 122.81 377.22, 123.60
 377.63, 124.79 378.46, 125.58 379.71, 125.98 380.54, 125.98"/>
<polyline points="
 380.54, 125.98 381.79, 125.58 382.63, 124.79"/>
<polyline points="
 382.21, 122.81 382.21, 121.62 381.79, 120.83"/>
<polyline points="
 379.71, 120.43 378.88, 120.83 378.05, 121.62 377.63, 122.81 377.63, 123.60
 378.05, 124.79 378.88, 125.58 379.71, 125.98"/>
<polyline points="
 390.19, 125.98 390.19, 117.66 388.52, 117.66"/>
<polyline points="
 389.77, 117.66 389.77, 125.98 391.43, 125.98"/>
<polyline points="
 387.27, 120.43 386.03, 120.83 385.19, 121.62 384.78, 122.81 384.78, 123.60
 385.19, 124.79 386.03, 125.58 387.27, 125.98 388.11, 125.98 388.94, 125.58
 389.77, 124.79"/>
<polyline points="
 389.77, 121.62 388.94, 120.83 388.11, 120.43 387.27, 120.43 386.44, 120.83
 385.61, 121.62 385.19, 122.81 385.19, 123.60 385.61, 124.79 386.44, 125.58
 387.27, 125.98"/>
<polyline points="
 404.89, 125.98 404.89, 117.66 403.23, 117.66"/>
<polyline points="
 404.48, 117.66 404.48, 125.98 406.14, 125.98"/>
<polyline points="
 401.98, 120.43 400.73, 120.83 399.90, 121.62 399.48, 122.81 399.48, 123.60
 399.90, 124.79 400.73, 125.58 401.98, 125.98 402.81, 125.98 403.65, 125.58
 404.48, 124.79"/>
<polyline points="
 404.48, 121.62 403.65, 120.83 402.81, 120.43 401.98, 120.43 401.15, 120.83
 400.32, 121.62 399.90, 122.81 399.90, 123.60 400.32, 124.79 401.15, 125.58
 401.98, 125.98"/>
<polyline points="
 409.96, 125.98 409.13, 125.58 408.71, 124.79 408.71, 124.00 409.13, 123.20
 409.96, 122.81"/>
<polyline points="
 409.13, 121.22 409.13, 121.62 408.71, 121.62 408.71, 121.22 409.13, 120.83
 409.96, 120.43 411.62, 120.43 412.46, 120.83 412.87, 121.22 413.29, 122.01
 413.29, 124.79 413.70, 125.58 414.12, 125.98 414.54, 125.98 414.12, 125.98
 413.29, 125.58 412.87, 124.79 412.87, 121.22 412.87, 122.01 412.46, 122.41
 409.96, 122.81 408.71, 123.20 408.29, 124.00 408.29, 124.79 408.71, 125.58
 409.96, 125.98 411.21, 125.98 412.04, 125.58 412.87, 124.79"/>
<polyline points="
 417.10, 125.19 416.69, 125.98 416.69, 124.39 417.10, 125.19 417.52, 125.58
 418.35, 125.98 420.02, 125.98 420.85, 125.58 421.27, 125.19 421.27, 124.00
 420.85, 123.60 420.02, 123.20 417.94, 122.41 417.10, 122.01 416.69, 121.62
 416.69, 121.22 417.10, 120.83 417.94, 120.43 419.60, 120.43 420.43, 120.83
 420.85, 121.22 421.27, 122.01 421.27, 120.43 420.85, 121.22"/>
<polyline points="
 416.69, 121.62 416.69, 122.01 417.10, 122.41 417.94, 122.81 420.02, 123.60
 420.85, 124.00 421.27, 124.39"/>
<polyline points="
 423.42, 125.98 425.08, 125.98 425.08, 117.66 423.42, 117.66"/>
<polyline points="
 424.67, 117.66 424.67, 125.98 426.33, 125.98"/>
<polyline points="
 425.08, 121.62 425.91, 120.83 427.16, 120.43 427.99, 120.43 429.24, 120.83
 429.66, 121.62 429.66, 125.98"/>
<line x1="427.99" y1="125.98" x2="430.91" y2="125.98"/>
<polyline points="
 429.24, 125.98 429.24, 121.62 428.83, 120.83 427.99, 120.43"/>
<polyline points="
 433.48, 122.81 438.47, 122.81 438.47, 122.01 438.05, 121.22 437.64, 120.83
 436.80, 120.43 435.56, 120.43"/>
<polyline points="
 435.56, 120.43 434.31, 120.83 433.48, 121.62 433.06, 122.81 433.06, 123.60
 433.48, 124.79 434.31, 125.58 435.56, 125.98 436.39, 125.98"/>
<polyline points="
 436.39, 125.98 437.64, 125.58 438.47, 124.79"/>
<polyline points="
 438.05, 122.81 438.05, 121.62 437.64, 120.83"/>
<polyline points="
 435.56, 120.43 434.72, 120.83 433.89, 121.62 433.48, 122.81 433.48, 123.60
 433.89, 124.79 434.72, 125.58 435.56, 125.98"/>
<polyline points="
 446.03, 125.98 446.03, 117.66 444.37, 117.66"/>
<polyline points="
 445.61, 117.66 445.61, 125.98 447.28, 125.98"/>
<polyline points="
 443.12, 120.43 441.87, 120.83 441.04, 121.62 440.62, 122.81 440.62, 123.60
 441.04, 124.79 441.87, 125.58 443.12, 125.98 443.95, 125.98 444.78, 125.58
 445.61, 124.79"/>
<polyline points="
 445.61, 121.62 444.78, 120.83 443.95, 120.43 443.12, 120.43 442.29, 120.83
 441.45, 121.62 441.04, 122.81 441.04, 123.60 441.45, 124.79 442.29, 125.58
 443.12, 125.98"/>
<line x1="455.33" y1="123.60" x2="462.82" y2="123.60"/>
<line x1="455.33" y1="121.22" x2="462.82" y2="121.22"/>
<polyline points="
 473.78, 125.98 474.61, 125.98 475.86, 125.58 476.69, 124.79 477.11, 124.00"/>
<polyline points="
 476.69, 118.84 477.11, 117.66 477.11, 120.03 476.69, 118.84"/>
<polyline points="
 476.69, 118.84 475.86, 118.05 474.61, 117.66 473.78, 117.66 472.53, 118.05
 471.70, 118.84 471.28, 119.64 470.87, 121.22 470.87, 122.41 471.28, 124.00
 471.70, 124.79 472.53, 125.58 473.78, 125.98"/>
<polyline points="
 473.78, 117.66 472.95, 118.05 472.12, 118.84 471.70, 119.64 471.28, 121.22
 471.28, 122.41 471.70, 124.00 472.12, 124.79 472.95, 125.58 473.78, 125.98"/>
<line x1="480.93" y1="125.98" x2="480.93" y2="117.66"/>
<line x1="480.51" y1="117.66" x2="480.51" y2="125.98"/>
<polyline points="
 479.26, 125.98 484.25, 125.98 485.09, 125.58 485.50, 125.19 485.92, 124.39
 485.92, 123.20 485.50, 122.41 485.09, 122.01 484.25, 121.62 485.50, 122.01
 485.92, 122.41 486.33, 123.20 486.33, 124.39 485.92, 125.19 485.50, 125.58
 484.25, 125.98"/>
<polyline points="
 480.93, 121.62 484.25, 121.62 485.09, 121.22 485.50, 120.83 485.92, 120.03
 485.92, 119.24 485.50, 118.45 485.09, 118.05 484.25, 117.66 479.26, 117.66"/>
<polyline points="
 484.25, 117.66 485.50, 118.05 485.92, 118.45 486.33, 119.24 486.33, 120.03
 485.92, 120.83 485.50, 121.22 484.25, 121.62"/>
<polyline points="
 494.38, 125.98 496.05, 125.98 496.05, 120.43 494.38, 120.43"/>
<polyline points="
 495.63, 120.43 495.63, 125.98 497.30, 125.98"/>
<polyline points="
 496.05, 121.62 496.88, 120.83 498.13, 120.43 498.96, 120.43 500.21, 120.83
 500.63, 121.62 500.63, 125.98"/>
<line x1="498.96" y1="125.98" x2="501.87" y2="125.98"/>
<polyline points="
 500.21, 125.98 500.21, 121.62 499.79, 120.83 498.96, 120.43"/>
<polyline points="
 500.63, 121.62 501.46, 120.83 502.71, 120.43 503.54, 120.43 504.79, 120.83
 505.20, 121.62 505.20, 125.98"/>
<line x1="503.54" y1="125.98" x2="506.45" y2="125.98"/>
<polyline points="
 504.79, 125.98 504.79, 121.62 504.37, 120.83 503.54, 120.43"/>
<polyline points="
 508.60, 125.98 510.27, 125.98 510.27, 120.43 508.60, 120.43"/>
<polyline points="
 509.85, 118.45 510.27, 118.05 509.85, 117.66 509.44, 118.05 509.85, 118.45"/>
<polyline points="
 509.85, 120.43 509.85, 125.98 511.52, 125.98"/>
<polyline points="
 513.67, 125.98 515.33, 125.98 515.33, 120.43 513.67, 120.43"/>
<polyline points="
 514.92, 120.43 514.92, 125.98 516.58, 125.98"/>
<polyline points="
 515.33, 121.62 516.16, 120.83 517.41, 120.43 518.24, 120.43 519.49, 120.83
 519.91, 121.62 519.91, 125.98"/>
<line x1="518.24" y1="125.98" x2="521.16" y2="125.98"/>
<polyline points="
 519.49, 125.98 519.49, 121.62 519.08, 120.83 518.24, 120.43"/>
<line x1="523.31" y1="127.56" x2="530.80" y2="116.07"/>
<polyline points="
 532.95, 125.98 534.62, 125.98 534.62, 120.43 532.95, 120.43"/>
<polyline points="
 534.20, 120.43 534.20, 125.98 535.86, 125.98"/>
<polyline points="
 534.62, 121.62 535.45, 120.83 536.70, 120.43 537.53, 120.43 538.78, 120.83
 539.19, 121.62 539.19, 125.98"/>
<line x1="537.53" y1="125.98" x2="540.44" y2="125.98"/>
<polyline points="
 538.78, 125.98 538.78, 121.62 538.36, 120.83 537.53, 120.43"/>
<polyline points="
 539.19, 121.62 540.03, 120.83 541.27, 120.43 542.11, 120.43 543.35, 120.83
 543.77, 121.62 543.77, 125.98"/>
<line x1="542.11" y1="125.98" x2="545.02" y2="125.98"/>
<polyline points="
 543.35, 125.98 543.35, 121.62 542.94, 120.83 542.11, 120.43"/>
<polyline points="
 548.84, 125.98 548.00, 125.58 547.59, 124.79 547.59, 124.00 548.00, 123.20
 548.84, 122.81"/>
<polyline points="
 548.00, 121.22 548.00, 121.62 547.59, 121.62 547.59, 121.22 548.00, 120.83
 548.84, 120.43 550.50, 120.43 551.33, 120.83 551.75, 121.22 552.16, 122.01
 552.16, 124.79 552.58, 125.58 553.00, 125.98 553.41, 125.98 553.00, 125.98
 552.16, 125.58 551.75, 124.79 551.75, 121.22 551.75, 122.01 551.33, 122.41
 548.84, 122.81 547.59, 123.20 547.17, 124.00 547.17, 124.79 547.59, 125.58
 548.84, 125.98 550.08, 125.98 550.92, 125.58 551.75, 124.79"/>
<line x1="555.56" y1="125.98" x2="558.06" y2="125.98"/>
<line x1="556.40" y1="125.98" x2="561.39" y2="120.43"/>
<line x1="559.73" y1="120.43" x2="562.22" y2="120.43"/>
<line x1="555.56" y1="120.43" x2="558.06" y2="120.43"/>
<line x1="556.40" y1="120.43" x2="560.97" y2="125.98"/>
<line x1="556.81" y1="120.43" x2="561.39" y2="125.98"/>
<line x1="559.73" y1="125.98" x2="562.22" y2="125.98"/>
<polyline points="
 564.79, 125.98 564.37, 125.58 564.79, 125.19 565.21, 125.58 565.21, 126.37
 564.79, 127.17 564.37, 127.56"/>
<polyline points="
 564.79, 121.22 565.21, 120.83 564.79, 120.43 564.37, 120.83 564.79, 121.22"/>
<polyline points="
 573.67, 125.19 573.26, 125.98 573.26, 124.39 573.67, 125.19 574.09, 125.58
 574.92, 125.98 576.59, 125.98 577.42, 125.58 577.83, 125.19 577.83, 124.00
 577.42, 123.60 576.59, 123.20 574.50, 122.41 573.67, 122.01 573.26, 121.62
 573.26, 121.22 573.67, 120.83 574.50, 120.43 576.17, 120.43 577.00, 120.83
 577.42, 121.22 577.83, 122.01 577.83, 120.43 577.42, 121.22"/>
<polyline points="
 573.26, 121.62 573.26, 122.01 573.67, 122.41 574.50, 122.81 576.59, 123.60
 577.42, 124.00 577.83, 124.39"/>
<polyline points="
 583.31, 125.98 584.56, 125.58 585.39, 124.79 585.81, 123.60 585.81, 122.81
 585.39, 121.62 584.56, 120.83 583.31, 120.43 582.48, 120.43 581.23, 120.83
 580.40, 121.62 579.99, 122.81 579.99, 123.60 580.40, 124.79 581.23, 125.58
 582.48, 125.98 583.31, 125.98 584.15, 125.58 584.98, 124.79 585.39, 123.60
 585.39, 122.81 584.98, 121.62 584.15, 120.83 583.31, 120.43 582.48, 120.43
 581.65, 120.83 580.82, 121.62 580.40, 122.81 580.40, 123.60 580.82, 124.79
 581.65, 125.58 582.48, 125.98"/>
<polyline points="
 587.96, 125.98 589.63, 125.98 589.63, 117.66 587.96, 117.66"/>
<polyline points="
 589.21, 117.66 589.21, 125.98 590.88, 125.98"/>
<polyline points="
 593.03, 125.98 594.69, 125.98 594.69, 120.43 593.03, 120.43"/>
<polyline points="
 594.28, 118.45 594.69, 118.05 594.28, 117.66 593.86, 118.05 594.28, 118.45"/>
<polyline points="
 594.28, 120.43 594.28, 125.98 595.94, 125.98"/>
<polyline points="
 603.50, 125.98 603.50, 117.66 601.84, 117.66"/>
<polyline points="
 603.09, 117.66 603.09, 125.98 604.75, 125.98"/>
<polyline points="
 600.59, 120.43 599.34, 120.83 598.51, 121.62 598.09, 122.81 598.09, 123.60
 598.51, 124.79 599.34, 125.58 600.59, 125.98 601.42, 125.98 602.25, 125.58
 603.09, 124.79"/>
<polyline points="
 603.09, 121.62 602.25, 120.83 601.42, 120.43 600.59, 120.43 599.76, 120.83
 598.93, 121.62 598.51, 122.81 598.51, 123.60 598.93, 124.79 599.76, 125.58
 600.59, 125.98"/>
<polyline points="
 612.80, 125.98 614.46, 125.98 614.46, 117.66 612.80, 117.66"/>
<polyline points="
 614.05, 117.66 614.05, 125.98 615.71, 125.98"/>
<polyline points="
 617.86, 125.98 619.53, 125.98 619.53, 120.43 617.86, 120.43"/>
<polyline points="
 619.11, 118.45 619.53, 118.05 619.11, 117.66 618.70, 118.05 619.11, 118.45"/>
<polyline points="
 619.11, 120.43 619.11, 125.98 620.78, 125.98"/>
<polyline points="
 622.93, 125.98 624.59, 125.98 624.59, 120.43 622.93, 120.43"/>
<polyline points="
 624.18, 120.43 624.18, 125.98 625.84, 125.98"/>
<polyline points="
 624.59, 121.62 625.43, 120.83 626.67, 120.43 627.51, 120.43 628.76, 120.83
 629.17, 121.62 629.17, 125.98"/>
<line x1="627.51" y1="125.98" x2="630.42" y2="125.98"/>
<polyline points="
 628.76, 125.98 628.76, 121.62 628.34, 120.83 627.51, 120.43"/>
<polyline points="
 632.99, 122.81 637.98, 122.81 637.98, 122.01 637.57, 121.22 637.15, 120.83
 636.32, 120.43 635.07, 120.43"/>
<polyline points="
 635.07, 120.43 633.82, 120.83 632.99, 121.62 632.57, 122.81 632.57, 123.60
 632.99, 124.79 633.82, 125.58 635.07, 125.98 635.90, 125.98"/>
<polyline points="
 635.90, 125.98 637.15, 125.58 637.98, 124.79"/>
<polyline points="
 637.57, 122.81 637.57, 121.62 637.15, 120.83"/>
<polyline points="
 635.07, 120.43 634.24, 120.83 633.40, 121.62 632.99, 122.81 632.99, 123.60
 633.40, 124.79 634.24, 125.58 635.07, 125.98"/>
<polyline points="
 640.55, 125.19 640.13, 125.98 640.13, 124.39 640.55, 125.19 640.97, 125.58
 641.80, 125.98 643.46, 125.98 644.29, 125.58 644.71, 125.19 644.71, 124.00
 644.29, 123.60 643.46, 123.20 641.38, 122.41 640.55, 122.01 640.13, 121.62
 640.13, 121.22 640.55, 120.83 641.38, 120.43 643.05, 120.43 643.88, 120.83
 644.29, 121.22 644.71, 122.01 644.71, 120.43 644.29, 121.22"/>
<polyline points="
 640.13, 121.62 640.13, 122.01 640.55, 122.41 641.38, 122.81 643.46, 123.60
 644.29, 124.00 644.71, 124.39"/>
<line x1="652.76" y1="123.60" x2="660.25" y2="123.60"/>
<line x1="652.76" y1="121.22" x2="660.25" y2="121.22"/>
<polyline points="
 668.30, 128.75 669.96, 128.75 669.96, 120.43 668.30, 120.43"/>
<polyline points="
 669.55, 120.43 669.55, 128.75 671.21, 128.75"/>
<polyline points="
 669.96, 124.79 670.80, 125.58 671.63, 125.98"/>
<polyline points="
 671.63, 125.98 672.46, 125.98 673.29, 125.58 674.12, 124.79 674.54, 123.60
 674.54, 122.81 674.12, 121.62 673.29, 120.83 672.46, 120.43 671.63, 120.43
 670.80, 120.83 669.96, 121.62"/>
<polyline points="
 672.46, 125.98 673.71, 125.58 674.54, 124.79 674.96, 123.60 674.96, 122.81
 674.54, 121.62 673.71, 120.83 672.46, 120.43"/>
<polyline points="
 679.19, 125.98 677.94, 125.58 677.53, 125.19 677.11, 124.39 677.11, 124.00
 677.53, 123.60 677.94, 124.00 677.53, 124.39"/>
<polyline points="
 679.19, 125.98 680.44, 125.98 681.69, 125.58 682.52, 124.79 682.93, 123.60
 682.93, 122.81 682.52, 121.62 681.69, 120.83 680.44, 120.43 679.19, 120.43
 677.94, 120.83 677.11, 121.62 677.94, 117.66 682.10, 117.66 680.02, 118.05
 677.94, 118.05"/>
<polyline points="
 680.44, 120.43 681.27, 120.83 682.10, 121.62 682.52, 122.81 682.52, 123.60
 682.10, 124.79 681.27, 125.58 680.44, 125.98"/>
<polyline points="
 687.58, 125.98 688.42, 125.98 689.66, 125.58 690.50, 124.39 690.91, 122.41
 690.91, 121.22 690.50, 119.24 689.66, 118.05 688.42, 117.66 687.58, 117.66
 686.33, 118.05 685.50, 119.24 685.09, 121.22 685.09, 122.41 685.50, 124.39
 686.33, 125.58 687.58, 125.98 688.42, 125.98 689.25, 125.58 689.66, 125.19
 690.08, 124.39 690.50, 122.41 690.50, 121.22 690.08, 119.24 689.66, 118.45
 689.25, 118.05 688.42, 117.66 687.58, 117.66 686.75, 118.05 686.33, 118.45
 685.92, 119.24 685.50, 121.22 685.50, 122.41 685.92, 124.39 686.33, 125.19
 686.75, 125.58 687.58, 125.98"/>
</g>
</svg>
